<?xml version="1.0" encoding="UTF-8"?>
<svg id="Layer_1" xmlns="http://www.w3.org/2000/svg" version="1.1" viewBox="0 0 40 40">
  <!-- Generator: Adobe Illustrator 29.8.1, SVG Export Plug-In . SVG Version: 2.1.1 Build 2)  -->
  <defs>
    <style>
      .st0 {
        fill: none;
        stroke: #fff;
        stroke-miterlimit: 10;
      }
    </style>
  </defs>
  <g id="Group_26">
    <path id="Path_8" class="st0" d="M28.93,23.44c-1-.55-1.84-1.11-2.46-1.51-.47-.31-.81-.53-1.06-.66-.45-.28-1.03-.24-1.43.1-.02.03-.05.05-.07.08-.5.85-1.17,1.59-1.95,2.19-1.21-.54-2.33-1.27-3.31-2.15-1.52-1.27-2.48-2.49-2.62-3.31.98-1.01,1.33-1.64,1.33-2.36-.47-1.48-1.16-2.88-2.04-4.15-.31-.31-1.02-.36-2.1-.15-.1.02-.2.07-.28.15-.13.13-3.2,3.26-1.74,7.04,1.6,4.16,5.7,8.99,10.93,9.77.55.09,1.11.13,1.67.13,3.08,0,4.9-1.55,5.41-4.62.04-.22-.07-.45-.27-.56Z"/>
  </g>
</svg>