<?xml version="1.0" encoding="UTF-8"?>
<svg id="Layer_1" xmlns="http://www.w3.org/2000/svg" version="1.1" viewBox="0 0 40 40">
  <!-- Generator: Adobe Illustrator 29.8.1, SVG Export Plug-In . SVG Version: 2.1.1 Build 2)  -->
  <defs>
    <style>
      .st0 {
        fill: #fb8c05;
      }

      .st1 {
        fill: #fff;
      }
    </style>
  </defs>
  <path id="Path_2022" class="st0" d="M20,40h0C8.95,40,0,31.05,0,20h0C0,8.95,8.96,0,20,0c11.04,0,20,8.95,20,20h0c0,11.05-8.95,20-20,20"/>
  <path id="Path_2023" class="st1" d="M20,11.01c2.92,0,3.27.01,4.43.06.7,0,1.38.14,2.04.38.96.37,1.71,1.13,2.08,2.08.24.65.37,1.34.38,2.04.05,1.16.06,1.5.06,4.43s-.01,3.27-.06,4.43c0,.7-.14,1.38-.38,2.04-.37.96-1.12,1.71-2.08,2.08-.65.24-1.34.37-2.04.38-1.16.05-1.5.06-4.43.06s-3.27-.01-4.43-.06c-.7,0-1.38-.14-2.04-.38-.96-.37-1.71-1.13-2.08-2.08-.24-.65-.37-1.34-.38-2.04-.05-1.16-.06-1.5-.06-4.43s.01-3.28.06-4.43c0-.7.14-1.38.38-2.04.37-.96,1.12-1.71,2.08-2.08.65-.24,1.34-.37,2.04-.38,1.16-.05,1.5-.06,4.43-.06M20,9.03c-2.98,0-3.35.01-4.52.07-.91.02-1.81.19-2.66.51-1.47.57-2.64,1.73-3.21,3.21-.32.85-.49,1.75-.51,2.66-.05,1.17-.07,1.54-.07,4.52s.01,3.35.07,4.52c.02.91.19,1.81.51,2.66.57,1.47,1.73,2.64,3.21,3.21.85.32,1.75.49,2.66.51,1.17.05,1.54.07,4.52.07s3.35-.01,4.52-.07c.91-.02,1.81-.19,2.66-.51,1.47-.57,2.64-1.73,3.21-3.21.32-.85.49-1.75.51-2.66.05-1.17.07-1.54.07-4.52s-.01-3.35-.07-4.52c-.02-.91-.19-1.81-.51-2.66-.57-1.47-1.73-2.64-3.21-3.21-.85-.32-1.75-.49-2.66-.51-1.17-.05-1.54-.07-4.52-.07"/>
  <path id="Path_2024" class="st1" d="M20,14.37c-3.11,0-5.63,2.52-5.63,5.63s2.52,5.63,5.63,5.63c3.11,0,5.63-2.52,5.63-5.63h0c0-3.11-2.52-5.63-5.63-5.63M20,23.65c-2.02,0-3.65-1.64-3.65-3.65s1.64-3.65,3.65-3.65,3.65,1.64,3.65,3.65-1.64,3.65-3.65,3.65h0"/>
  <path id="Path_2025" class="st1" d="M27.17,14.14c0,.72-.59,1.31-1.31,1.31-.72,0-1.31-.59-1.31-1.31s.59-1.31,1.31-1.31c.72,0,1.31.59,1.31,1.31"/>
</svg>