<?xml version="1.0" encoding="UTF-8"?>
<svg id="Layer_1" xmlns="http://www.w3.org/2000/svg" version="1.1" viewBox="0 0 40 40">
  <!-- Generator: Adobe Illustrator 29.8.1, SVG Export Plug-In . SVG Version: 2.1.1 Build 2)  -->
  <defs>
    <style>
      .st0 {
        fill: #fb8c05;
      }

      .st1 {
        fill: #fff;
      }
    </style>
  </defs>
  <g id="Group_844">
    <path id="Path_2002" class="st0" d="M20,40h0C8.95,40,0,31.05,0,20h0C0,8.95,8.96,0,20,0c11.04,0,20,8.95,20,20h0c0,11.05-8.95,20-20,20"/>
    <path id="Path_2003" class="st1" d="M7.65,16.03c.49.3.99.59,1.48.89,3.32,2.03,6.64,4.05,9.96,6.08.54.38,1.26.38,1.81,0,3.72-2.28,7.44-4.56,11.17-6.83.08-.05.16-.09.28-.16v9.35c.07,2-1.5,3.68-3.5,3.75-.07,0-.15,0-.22,0-5.75,0-11.49,0-17.24,0-1.85.04-3.44-1.31-3.69-3.15,0-.03-.02-.06-.04-.08v-9.85"/>
    <path id="Path_2004" class="st1" d="M32.25,13.72c-.08.05-.15.1-.22.15-3.94,2.41-7.87,4.82-11.82,7.24-.13.1-.3.1-.43,0-3.94-2.42-7.89-4.84-11.84-7.25-.14-.05-.2-.21-.15-.34,0,0,0-.01,0-.02.48-1.59,1.96-2.66,3.61-2.62h17.14c.42,0,.85.06,1.25.19,1.23.39,2.15,1.4,2.43,2.66"/>
  </g>
</svg>