<?xml version="1.0" encoding="UTF-8"?>
<svg id="Layer_1" xmlns="http://www.w3.org/2000/svg" version="1.1" viewBox="0 0 40 40">
  <!-- Generator: Adobe Illustrator 29.8.1, SVG Export Plug-In . SVG Version: 2.1.1 Build 2)  -->
  <defs>
    <style>
      .st0 {
        fill: #fb8c05;
      }

      .st1 {
        fill: #fff;
      }
    </style>
  </defs>
  <path id="Path_2026" class="st0" d="M20,39.93h0C8.95,39.93,0,30.98,0,19.93H0C.08,8.88,9.1,0,20.14.07c10.94.08,19.78,8.92,19.86,19.86h0c0,11.05-8.95,20-20,20"/>
  <path id="Path_2027" class="st1" d="M9.34,26.62c5.78,3.7,13.47,2.02,17.18-3.76,1.39-2.17,2.07-4.71,1.95-7.28.86-.62,1.59-1.39,2.18-2.26-.8.35-1.64.59-2.51.69.91-.55,1.59-1.41,1.92-2.42-.86.51-1.8.87-2.78,1.06-1.66-1.76-4.43-1.84-6.18-.18-1.13,1.07-1.61,2.66-1.26,4.17-3.52-.17-6.79-1.84-9.01-4.57-1.16,2-.57,4.55,1.35,5.84-.69-.02-1.37-.21-1.98-.55-.02,2.1,1.45,3.93,3.51,4.34-.64.17-1.32.2-1.97.07.57,1.78,2.21,3,4.09,3.04-1.83,1.44-4.16,2.09-6.47,1.82"/>
</svg>