<?xml version="1.0" encoding="UTF-8"?>
<svg id="Icon_15" xmlns="http://www.w3.org/2000/svg" version="1.1" viewBox="0 0 100.47 92.73">
  <!-- Generator: Adobe Illustrator 29.8.1, SVG Export Plug-In . SVG Version: 2.1.1 Build 2)  -->
  <defs>
    <style>
      .st0 {
        fill: none;
        stroke: #27a49f;
        stroke-linecap: round;
        stroke-linejoin: round;
        stroke-width: 2px;
      }
    </style>
  </defs>
  <g id="Group_776">
    <path id="Path_2300" class="st0" d="M57.73,16.16c0,4.14-3.36,7.5-7.5,7.5s-7.5-3.36-7.5-7.5,3.36-7.5,7.5-7.5,7.5,3.36,7.5,7.5Z"/>
    <path id="Path_2301" class="st0" d="M37.01,40.86c0-7.3,5.92-13.22,13.22-13.22s13.22,5.92,13.22,13.22"/>
    <path id="Path_2302" class="st0" d="M39.4,14.32c0,3.06-2.49,5.54-5.55,5.54-3.06,0-5.54-2.49-5.54-5.55,0-3.06,2.49-5.54,5.55-5.54,3.06,0,5.54,2.49,5.54,5.55h0Z"/>
    <path id="Path_2303" class="st0" d="M24.08,32.58c0-5.4,4.37-9.77,9.77-9.77,1.85,0,3.66.53,5.23,1.52"/>
    <path id="Path_2304" class="st0" d="M72.16,14.32c0,3.06-2.49,5.54-5.55,5.54-3.06,0-5.54-2.49-5.54-5.55,0-3.06,2.48-5.54,5.54-5.54,3.06,0,5.54,2.48,5.55,5.54,0,0,0,0,0,0Z"/>
    <path id="Path_2305" class="st0" d="M61.39,24.33c4.56-2.89,10.6-1.53,13.49,3.03.99,1.56,1.51,3.37,1.51,5.22"/>
    <path id="Path_2306" class="st0" d="M22.86,57.26c-1.01-1.73-4.73-9.97-4.73-9.97-1.01-3.51.13-4.76,1.52-5.13,1.55-.38,3.17.32,3.95,1.72l5.59,9.56s6.8,1.67,8.76,5.4c1.61,3.06,1.4,13.48,1.27,17.09"/>
    <path id="Path_2307" class="st0" d="M18.51,42.7l.25-14.78s-.38-3.27-5.28-3.5l-2.53,22.71,5.95,15.69s10.54,3.59,9.88,9.92c-.17,1.59-.21,2.01-.32,3.14"/>
    <path id="Path_2308" class="st0" d="M44.67,84.07l.02-8.14-23.83-.07-.02,8.14"/>
    <path id="Path_2309" class="st0" d="M61.24,75.91c-.13-3.61-.34-14.03,1.27-17.09,1.96-3.72,8.76-5.39,8.76-5.39l5.59-9.56c.79-1.39,2.4-2.09,3.96-1.72,1.39.37,2.53,1.62,1.52,5.13,0,0-3.72,8.24-4.73,9.97"/>
    <path id="Path_2310" class="st0" d="M74.01,75.88c-.11-1.13-.16-1.55-.32-3.14-.66-6.33,9.88-9.92,9.88-9.92l5.95-15.69-2.54-22.71c-4.9.23-5.28,3.5-5.28,3.5l.25,14.78"/>
    <path id="Path_2311" class="st0" d="M55.79,84.07l-.02-8.14,23.83-.07.02,8.14"/>
    <path id="Path_2312" class="st0" d="M57.73,16.16c0,4.14-3.36,7.5-7.5,7.5s-7.5-3.36-7.5-7.5,3.36-7.5,7.5-7.5,7.5,3.36,7.5,7.5Z"/>
    <path id="Path_2313" class="st0" d="M37.01,40.86c0-7.3,5.92-13.22,13.22-13.22s13.22,5.92,13.22,13.22"/>
    <path id="Path_2314" class="st0" d="M39.4,14.32c0,3.06-2.49,5.54-5.55,5.54-3.06,0-5.54-2.49-5.54-5.55,0-3.06,2.49-5.54,5.55-5.54,3.06,0,5.54,2.49,5.54,5.55h0Z"/>
    <path id="Path_2315" class="st0" d="M24.08,32.58c0-5.4,4.37-9.77,9.77-9.77,1.85,0,3.66.53,5.23,1.52"/>
    <path id="Path_2316" class="st0" d="M72.16,14.32c0,3.06-2.49,5.54-5.55,5.54-3.06,0-5.54-2.49-5.54-5.55,0-3.06,2.48-5.54,5.54-5.54,3.06,0,5.54,2.48,5.55,5.54,0,0,0,0,0,0Z"/>
    <path id="Path_2317" class="st0" d="M61.39,24.33c4.56-2.89,10.6-1.53,13.49,3.03.99,1.56,1.51,3.37,1.51,5.22"/>
    <path id="Path_2318" class="st0" d="M22.86,57.26c-1.01-1.73-4.73-9.97-4.73-9.97-1.01-3.51.13-4.76,1.52-5.13,1.55-.38,3.17.32,3.95,1.72l5.59,9.56s6.8,1.67,8.76,5.4c1.61,3.06,1.4,13.48,1.27,17.09"/>
    <path id="Path_2319" class="st0" d="M18.51,42.7l.25-14.78s-.38-3.27-5.28-3.5l-2.53,22.71,5.95,15.69s10.54,3.59,9.88,9.92c-.17,1.59-.21,2.01-.32,3.14"/>
    <path id="Path_2320" class="st0" d="M44.67,84.07l.02-8.14-23.83-.07-.02,8.14"/>
    <path id="Path_2321" class="st0" d="M61.24,75.91c-.13-3.61-.34-14.03,1.27-17.09,1.96-3.72,8.76-5.39,8.76-5.39l5.59-9.56c.79-1.39,2.4-2.09,3.96-1.72,1.39.37,2.53,1.62,1.52,5.13,0,0-3.72,8.24-4.73,9.97"/>
    <path id="Path_2322" class="st0" d="M74.01,75.88c-.11-1.13-.16-1.55-.32-3.14-.66-6.33,9.88-9.92,9.88-9.92l5.95-15.69-2.54-22.71c-4.9.23-5.28,3.5-5.28,3.5l.25,14.78"/>
    <path id="Path_2323" class="st0" d="M55.79,84.07l-.02-8.14,23.83-.07.02,8.14"/>
  </g>
</svg>