<?xml version="1.0" encoding="UTF-8"?>
<svg id="Icon_23" xmlns="http://www.w3.org/2000/svg" version="1.1" viewBox="0 0 100.47 92.73">
  <!-- Generator: Adobe Illustrator 29.8.1, SVG Export Plug-In . SVG Version: 2.1.1 Build 2)  -->
  <defs>
    <style>
      .st0 {
        fill: none;
        stroke: #27a49f;
        stroke-linecap: round;
        stroke-linejoin: round;
        stroke-width: 2px;
      }
    </style>
  </defs>
  <g id="Group_802">
    <path id="Path_2128" class="st0" d="M89.65,69.69V12.15H11.11v57.54"/>
    <path id="Path_2129" class="st0" d="M81.49,80.57H18.98c-6.01,0-10.88-4.87-10.88-10.88,0,0,0,0,0,0h27.23l5.84,4.3h18.41l5.85-4.3h26.94c0,6.01-4.87,10.88-10.88,10.88Z"/>
    <line id="Line_72" class="st0" x1="50.38" y1="63.26" x2="50.38" y2="18.58"/>
    <line id="Line_73" class="st0" x1="23.28" y1="40.92" x2="77.48" y2="40.92"/>
    <circle id="Ellipse_40" class="st0" cx="35.52" cy="24.13" r="4.8"/>
    <path id="Path_2130" class="st0" d="M27.5,37.21c1.51-4.43,6.32-6.8,10.75-5.29,2.49.85,4.45,2.8,5.29,5.29"/>
    <circle id="Ellipse_41" class="st0" cx="65.23" cy="24.13" r="4.8"/>
    <path id="Path_2131" class="st0" d="M57.21,37.21c1.51-4.43,6.32-6.8,10.75-5.29,2.49.85,4.45,2.8,5.29,5.29"/>
    <circle id="Ellipse_42" class="st0" cx="35.52" cy="49.31" r="4.8"/>
    <path id="Path_2132" class="st0" d="M27.5,62.4c1.51-4.43,6.32-6.8,10.75-5.29,2.49.85,4.45,2.8,5.29,5.29"/>
    <circle id="Ellipse_43" class="st0" cx="65.23" cy="49.31" r="4.8"/>
    <path id="Path_2133" class="st0" d="M57.21,62.4c1.51-4.43,6.32-6.8,10.75-5.29,2.49.85,4.45,2.8,5.29,5.29"/>
    <path id="Path_2134" class="st0" d="M89.65,69.69V12.15H11.11v57.54"/>
    <path id="Path_2135" class="st0" d="M81.49,80.57H18.98c-6.01,0-10.88-4.87-10.88-10.88,0,0,0,0,0,0h27.23l5.84,4.3h18.41l5.85-4.3h26.94c0,6.01-4.87,10.88-10.88,10.88Z"/>
    <line id="Line_74" class="st0" x1="50.38" y1="63.26" x2="50.38" y2="18.58"/>
    <line id="Line_75" class="st0" x1="23.28" y1="40.92" x2="77.48" y2="40.92"/>
    <circle id="Ellipse_44" class="st0" cx="35.52" cy="24.13" r="4.8"/>
    <path id="Path_2136" class="st0" d="M27.5,37.21c1.51-4.43,6.32-6.8,10.75-5.29,2.49.85,4.45,2.8,5.29,5.29"/>
    <circle id="Ellipse_45" class="st0" cx="65.23" cy="24.13" r="4.8"/>
    <path id="Path_2137" class="st0" d="M57.21,37.21c1.51-4.43,6.32-6.8,10.75-5.29,2.49.85,4.45,2.8,5.29,5.29"/>
    <circle id="Ellipse_46" class="st0" cx="35.52" cy="49.31" r="4.8"/>
    <path id="Path_2138" class="st0" d="M27.5,62.4c1.51-4.43,6.32-6.8,10.75-5.29,2.49.85,4.45,2.8,5.29,5.29"/>
    <circle id="Ellipse_47" class="st0" cx="65.23" cy="49.31" r="4.8"/>
    <path id="Path_2139" class="st0" d="M57.21,62.4c1.51-4.43,6.32-6.8,10.75-5.29,2.49.85,4.45,2.8,5.29,5.29"/>
  </g>
</svg>