<?xml version="1.0" encoding="UTF-8"?>
<svg id="Icon_22" xmlns="http://www.w3.org/2000/svg" version="1.1" viewBox="0 0 100.47 92.73">
  <!-- Generator: Adobe Illustrator 29.8.1, SVG Export Plug-In . SVG Version: 2.1.1 Build 2)  -->
  <defs>
    <style>
      .st0 {
        fill: none;
        stroke: #27a49f;
        stroke-linecap: round;
        stroke-linejoin: round;
        stroke-width: 2px;
      }
    </style>
  </defs>
  <g id="Group_804">
    <line id="Line_64" class="st0" x1="63.34" y1="74.15" x2="37.12" y2="74.15"/>
    <line id="Line_65" class="st0" x1="63.34" y1="18.58" x2="37.12" y2="18.58"/>
    <line id="Line_66" class="st0" x1="78.06" y1="59.41" x2="78.06" y2="33.32"/>
    <line id="Line_67" class="st0" x1="22.36" y1="59.41" x2="22.36" y2="33.32"/>
    <ellipse id="Ellipse_30" class="st0" cx="22.36" cy="18.58" rx="11.41" ry="11.51"/>
    <path id="Path_2110" class="st0" d="M26.54,15.48c-.02,2.31-1.91,4.17-4.22,4.15-2.31-.02-4.17-1.91-4.15-4.22.02-2.3,1.89-4.15,4.18-4.15,2.32,0,4.19,1.9,4.18,4.22,0,0,0,0,0,0Z"/>
    <path id="Path_2111" class="st0" d="M15.34,27.65c.99-3.05,3.82-5.12,7.02-5.14,1.96,0,3.84.78,5.21,2.18.83.83,1.44,1.85,1.8,2.96"/>
    <ellipse id="Ellipse_31" class="st0" cx="78.06" cy="18.58" rx="11.41" ry="11.51"/>
    <path id="Path_2112" class="st0" d="M82.24,15.48c-.02,2.31-1.91,4.17-4.22,4.15-2.31-.02-4.17-1.91-4.15-4.22.02-2.3,1.89-4.15,4.19-4.15,2.32.01,4.19,1.9,4.18,4.22Z"/>
    <path id="Path_2113" class="st0" d="M71.04,27.65c.99-3.05,3.82-5.12,7.02-5.14,1.96,0,3.84.78,5.21,2.18.83.83,1.44,1.85,1.8,2.96"/>
    <ellipse id="Ellipse_32" class="st0" cx="22.36" cy="74.15" rx="11.41" ry="11.51"/>
    <path id="Path_2114" class="st0" d="M26.54,71.04c-.02,2.31-1.91,4.17-4.22,4.15-2.31-.02-4.17-1.91-4.15-4.22.02-2.3,1.89-4.15,4.18-4.15,2.32,0,4.19,1.9,4.18,4.22,0,0,0,0,0,0Z"/>
    <path id="Path_2115" class="st0" d="M15.34,83.22c.99-3.05,3.82-5.12,7.02-5.14,1.96,0,3.84.78,5.21,2.18.83.83,1.44,1.85,1.8,2.96"/>
    <ellipse id="Ellipse_33" class="st0" cx="78.11" cy="74.15" rx="11.41" ry="11.51"/>
    <path id="Path_2116" class="st0" d="M82.29,71.04c-.02,2.31-1.91,4.17-4.22,4.15-2.31-.02-4.17-1.91-4.15-4.22.02-2.3,1.89-4.15,4.18-4.15,2.32,0,4.19,1.9,4.18,4.22,0,0,0,0,0,0Z"/>
    <path id="Path_2117" class="st0" d="M71.09,83.22c.99-3.05,3.82-5.12,7.02-5.14,1.96,0,3.84.78,5.21,2.18.83.83,1.44,1.85,1.8,2.96"/>
    <ellipse id="Ellipse_34" class="st0" cx="50.36" cy="46.49" rx="8.96" ry="8.94"/>
    <path id="Path_2118" class="st0" d="M68.29,43.45h-3.16c-.39-1.87-1.13-3.65-2.18-5.24l2.23-2.23c.47-.47.47-1.22,0-1.69,0,0,0,0,0,0l-2.6-2.6c-.47-.47-1.23-.47-1.7,0,0,0,0,0,0,0l-2.24,2.23c-1.6-1.05-3.38-1.79-5.26-2.17v-3.14c0-.66-.54-1.2-1.2-1.2h-3.68c-.66,0-1.2.54-1.2,1.2h0v3.15c-1.87.38-3.66,1.12-5.25,2.18l-2.23-2.23c-.47-.47-1.23-.47-1.7,0,0,0,0,0,0,0l-2.6,2.59c-.47.47-.47,1.22,0,1.69,0,0,0,0,0,0l2.24,2.23c-1.06,1.59-1.8,3.37-2.18,5.24h-3.16c-.66,0-1.2.54-1.2,1.2h0v3.67c0,.66.54,1.2,1.2,1.2h3.16c.39,1.87,1.13,3.65,2.18,5.24l-2.23,2.23c-.47.47-.47,1.22,0,1.69l2.6,2.6c.47.47,1.23.47,1.7,0,0,0,0,0,0,0l2.23-2.23c1.6,1.05,3.38,1.79,5.26,2.17v3.15c0,.66.54,1.2,1.2,1.2h3.68c.66,0,1.2-.54,1.2-1.2h0v-3.15c1.88-.38,3.66-1.12,5.26-2.18l2.23,2.23c.47.47,1.23.47,1.7,0,0,0,0,0,0,0l2.6-2.6c.47-.47.47-1.22,0-1.69,0,0,0,0,0,0l-2.23-2.23c1.06-1.59,1.8-3.37,2.18-5.24h3.15c.66,0,1.2-.54,1.2-1.2h0v-3.67c0-.66-.54-1.2-1.2-1.2h0Z"/>
    <line id="Line_68" class="st0" x1="63.34" y1="74.15" x2="37.12" y2="74.15"/>
    <line id="Line_69" class="st0" x1="63.34" y1="18.58" x2="37.12" y2="18.58"/>
    <line id="Line_70" class="st0" x1="78.06" y1="59.41" x2="78.06" y2="33.32"/>
    <line id="Line_71" class="st0" x1="22.36" y1="59.41" x2="22.36" y2="33.32"/>
    <ellipse id="Ellipse_35" class="st0" cx="22.36" cy="18.58" rx="11.41" ry="11.51"/>
    <path id="Path_2119" class="st0" d="M26.54,15.48c-.02,2.31-1.91,4.17-4.22,4.15-2.31-.02-4.17-1.91-4.15-4.22.02-2.3,1.89-4.15,4.18-4.15,2.32,0,4.19,1.9,4.18,4.22,0,0,0,0,0,0Z"/>
    <path id="Path_2120" class="st0" d="M15.34,27.65c.99-3.05,3.82-5.12,7.02-5.14,1.96,0,3.84.78,5.21,2.18.83.83,1.44,1.85,1.8,2.96"/>
    <ellipse id="Ellipse_36" class="st0" cx="78.06" cy="18.58" rx="11.41" ry="11.51"/>
    <path id="Path_2121" class="st0" d="M82.24,15.48c-.02,2.31-1.91,4.17-4.22,4.15-2.31-.02-4.17-1.91-4.15-4.22.02-2.3,1.89-4.15,4.19-4.15,2.32.01,4.19,1.9,4.18,4.22Z"/>
    <path id="Path_2122" class="st0" d="M71.04,27.65c.99-3.05,3.82-5.12,7.02-5.14,1.96,0,3.84.78,5.21,2.18.83.83,1.44,1.85,1.8,2.96"/>
    <ellipse id="Ellipse_37" class="st0" cx="22.36" cy="74.15" rx="11.41" ry="11.51"/>
    <path id="Path_2123" class="st0" d="M26.54,71.04c-.02,2.31-1.91,4.17-4.22,4.15-2.31-.02-4.17-1.91-4.15-4.22.02-2.3,1.89-4.15,4.18-4.15,2.32,0,4.19,1.9,4.18,4.22,0,0,0,0,0,0Z"/>
    <path id="Path_2124" class="st0" d="M15.34,83.22c.99-3.05,3.82-5.12,7.02-5.14,1.96,0,3.84.78,5.21,2.18.83.83,1.44,1.85,1.8,2.96"/>
    <ellipse id="Ellipse_38" class="st0" cx="78.11" cy="74.15" rx="11.41" ry="11.51"/>
    <path id="Path_2125" class="st0" d="M82.29,71.04c-.02,2.31-1.91,4.17-4.22,4.15-2.31-.02-4.17-1.91-4.15-4.22.02-2.3,1.89-4.15,4.18-4.15,2.32,0,4.19,1.9,4.18,4.22,0,0,0,0,0,0Z"/>
    <path id="Path_2126" class="st0" d="M71.09,83.22c.99-3.05,3.82-5.12,7.02-5.14,1.96,0,3.84.78,5.21,2.18.83.83,1.44,1.85,1.8,2.96"/>
    <ellipse id="Ellipse_39" class="st0" cx="50.36" cy="46.49" rx="8.96" ry="8.94"/>
    <path id="Path_2127" class="st0" d="M68.29,43.45h-3.16c-.39-1.87-1.13-3.65-2.18-5.24l2.23-2.23c.47-.47.47-1.22,0-1.69,0,0,0,0,0,0l-2.6-2.6c-.47-.47-1.23-.47-1.7,0,0,0,0,0,0,0l-2.24,2.23c-1.6-1.05-3.38-1.79-5.26-2.17v-3.14c0-.66-.54-1.2-1.2-1.2h-3.68c-.66,0-1.2.54-1.2,1.2h0v3.15c-1.87.38-3.66,1.12-5.25,2.18l-2.23-2.23c-.47-.47-1.23-.47-1.7,0,0,0,0,0,0,0l-2.6,2.59c-.47.47-.47,1.22,0,1.69,0,0,0,0,0,0l2.24,2.23c-1.06,1.59-1.8,3.37-2.18,5.24h-3.16c-.66,0-1.2.54-1.2,1.2h0v3.67c0,.66.54,1.2,1.2,1.2h3.16c.39,1.87,1.13,3.65,2.18,5.24l-2.23,2.23c-.47.47-.47,1.22,0,1.69l2.6,2.6c.47.47,1.23.47,1.7,0,0,0,0,0,0,0l2.23-2.23c1.6,1.05,3.38,1.79,5.26,2.17v3.15c0,.66.54,1.2,1.2,1.2h3.68c.66,0,1.2-.54,1.2-1.2h0v-3.15c1.88-.38,3.66-1.12,5.26-2.18l2.23,2.23c.47.47,1.23.47,1.7,0,0,0,0,0,0,0l2.6-2.6c.47-.47.47-1.22,0-1.69,0,0,0,0,0,0l-2.23-2.23c1.06-1.59,1.8-3.37,2.18-5.24h3.15c.66,0,1.2-.54,1.2-1.2h0v-3.67c0-.66-.54-1.2-1.2-1.2h0Z"/>
  </g>
</svg>