<?xml version="1.0" encoding="UTF-8"?>
<svg id="Icon_14" xmlns="http://www.w3.org/2000/svg" version="1.1" viewBox="0 0 100.47 92.73">
  <!-- Generator: Adobe Illustrator 29.8.1, SVG Export Plug-In . SVG Version: 2.1.1 Build 2)  -->
  <defs>
    <style>
      .st0 {
        fill: none;
        stroke: #27a49f;
        stroke-linecap: round;
        stroke-linejoin: round;
        stroke-width: 2px;
      }
    </style>
  </defs>
  <g id="Group_775">
    <path id="Path_2284" class="st0" d="M10.95,83.02v-19.04c0-2.59,1.14-5.04,3.12-6.7,3.16-2.65,7.87-2.25,10.53.91.55.66.98,1.4,1.28,2.2l2.77,7.45c1.25,3.36,4.46,5.59,8.05,5.59h3.65c2.36,0,4.27,1.91,4.27,4.27s-1.91,4.27-4.27,4.27h-11.18c-3.46,0-6.58-2.08-7.9-5.28l-2.04-4.93"/>
    <path id="Path_2285" class="st0" d="M26.64,44.33c0,3.96-3.21,7.17-7.17,7.17s-7.17-3.21-7.17-7.17c0-3.96,3.21-7.17,7.17-7.17h0c3.96,0,7.17,3.21,7.17,7.17Z"/>
    <path id="Path_2286" class="st0" d="M89.51,83.02v-19.04c0-2.59-1.14-5.04-3.12-6.7-3.16-2.65-7.87-2.25-10.53.91-.55.66-.98,1.4-1.28,2.2l-2.77,7.45c-1.25,3.36-4.46,5.59-8.04,5.59h-3.65c-2.36,0-4.27,1.91-4.27,4.27s1.91,4.27,4.27,4.27h11.18c3.46,0,6.58-2.08,7.9-5.28l2.04-4.93"/>
    <path id="Path_2287" class="st0" d="M73.83,44.33c0,3.96,3.21,7.17,7.17,7.17,3.96,0,7.17-3.21,7.17-7.17,0-3.96-3.21-7.17-7.17-7.17-3.96,0-7.17,3.21-7.17,7.17h0Z"/>
    <path id="Path_2288" class="st0" d="M57.01,40.82c0,3.74-3.03,6.78-6.77,6.78-3.74,0-6.78-3.03-6.78-6.77,0-3.74,3.03-6.78,6.77-6.78h0c3.74,0,6.78,3.03,6.78,6.77h0Z"/>
    <path id="Path_2289" class="st0" d="M38.28,68.21v-5.1c0-6.6,5.35-11.95,11.95-11.95s11.95,5.35,11.95,11.95v5.1"/>
    <line id="Line_137" class="st0" x1="19.47" y1="82.87" x2="81" y2="82.87"/>
    <path id="Path_2290" class="st0" d="M40.83,12.93v12.57c0,1.78-1.15,3.22-2.57,3.22h-12.65l-2.98,3.98c-.52.69-1.49.83-2.18.31-.39-.29-.62-.75-.62-1.24v-3.05h-3.53c-1.42,0-2.57-1.44-2.57-3.22v-12.56c0-1.78,1.15-3.22,2.57-3.22h21.97c1.41,0,2.57,1.44,2.57,3.22Z"/>
    <path id="Path_2291" class="st0" d="M59.41,12.93v12.57c0,1.78,1.15,3.22,2.57,3.22h12.65l2.98,3.98c.52.69,1.49.83,2.18.31.39-.29.62-.75.62-1.24v-3.05h3.53c1.42,0,2.57-1.44,2.57-3.22v-12.56c0-1.78-1.15-3.22-2.57-3.22h-21.96c-1.42,0-2.57,1.44-2.57,3.22Z"/>
    <path id="Path_2292" class="st0" d="M10.95,83.02v-19.04c0-2.59,1.14-5.04,3.12-6.7,3.16-2.65,7.87-2.25,10.53.91.55.66.98,1.4,1.28,2.2l2.77,7.45c1.25,3.36,4.46,5.59,8.05,5.59h3.65c2.36,0,4.27,1.91,4.27,4.27s-1.91,4.27-4.27,4.27h-11.18c-3.46,0-6.58-2.08-7.9-5.28l-2.04-4.93"/>
    <path id="Path_2293" class="st0" d="M26.64,44.33c0,3.96-3.21,7.17-7.17,7.17s-7.17-3.21-7.17-7.17c0-3.96,3.21-7.17,7.17-7.17h0c3.96,0,7.17,3.21,7.17,7.17Z"/>
    <path id="Path_2294" class="st0" d="M89.51,83.02v-19.04c0-2.59-1.14-5.04-3.12-6.7-3.16-2.65-7.87-2.25-10.53.91-.55.66-.98,1.4-1.28,2.2l-2.77,7.45c-1.25,3.36-4.46,5.59-8.04,5.59h-3.65c-2.36,0-4.27,1.91-4.27,4.27s1.91,4.27,4.27,4.27h11.18c3.46,0,6.58-2.08,7.9-5.28l2.04-4.93"/>
    <path id="Path_2295" class="st0" d="M73.83,44.33c0,3.96,3.21,7.17,7.17,7.17,3.96,0,7.17-3.21,7.17-7.17,0-3.96-3.21-7.17-7.17-7.17-3.96,0-7.17,3.21-7.17,7.17h0Z"/>
    <path id="Path_2296" class="st0" d="M57.01,40.82c0,3.74-3.03,6.78-6.77,6.78-3.74,0-6.78-3.03-6.78-6.77,0-3.74,3.03-6.78,6.77-6.78h0c3.74,0,6.78,3.03,6.78,6.77h0Z"/>
    <path id="Path_2297" class="st0" d="M38.28,68.21v-5.1c0-6.6,5.35-11.95,11.95-11.95s11.95,5.35,11.95,11.95v5.1"/>
    <line id="Line_138" class="st0" x1="19.47" y1="82.87" x2="81" y2="82.87"/>
    <path id="Path_2298" class="st0" d="M40.83,12.93v12.57c0,1.78-1.15,3.22-2.57,3.22h-12.65l-2.98,3.98c-.52.69-1.49.83-2.18.31-.39-.29-.62-.75-.62-1.24v-3.05h-3.53c-1.42,0-2.57-1.44-2.57-3.22v-12.56c0-1.78,1.15-3.22,2.57-3.22h21.97c1.41,0,2.57,1.44,2.57,3.22Z"/>
    <path id="Path_2299" class="st0" d="M59.41,12.93v12.57c0,1.78,1.15,3.22,2.57,3.22h12.65l2.98,3.98c.52.69,1.49.83,2.18.31.39-.29.62-.75.62-1.24v-3.05h3.53c1.42,0,2.57-1.44,2.57-3.22v-12.56c0-1.78-1.15-3.22-2.57-3.22h-21.96c-1.42,0-2.57,1.44-2.57,3.22Z"/>
  </g>
</svg>