<?xml version="1.0" encoding="UTF-8"?>
<svg id="Icon_20" xmlns="http://www.w3.org/2000/svg" version="1.1" viewBox="0 0 100.47 92.73">
  <!-- Generator: Adobe Illustrator 29.8.1, SVG Export Plug-In . SVG Version: 2.1.1 Build 2)  -->
  <defs>
    <style>
      .st0 {
        fill: none;
        stroke: #27a49f;
        stroke-linecap: round;
        stroke-linejoin: round;
        stroke-width: 2px;
      }
    </style>
  </defs>
  <g id="Group_770">
    <path id="Path_2356" class="st0" d="M59.12,56.34c0,4.92-3.98,8.9-8.9,8.9s-8.9-3.98-8.9-8.9c0-4.92,3.98-8.9,8.9-8.9s8.9,3.98,8.9,8.9c0,0,0,0,0,0Z"/>
    <path id="Path_2357" class="st0" d="M34.54,85.65c0-8.67,7.02-15.69,15.69-15.69s15.69,7.02,15.69,15.69"/>
    <path id="Path_2358" class="st0" d="M35.91,54.47c0,3.63-2.95,6.58-6.58,6.58-3.63,0-6.58-2.95-6.58-6.58,0-3.63,2.95-6.58,6.58-6.58s6.58,2.94,6.58,6.58h0Z"/>
    <path id="Path_2359" class="st0" d="M17.74,76.93c0-6.41,5.2-11.6,11.61-11.59,2.19,0,4.33.62,6.18,1.79"/>
    <path id="Path_2360" class="st0" d="M77.7,54.47c0,3.63-2.95,6.58-6.58,6.58s-6.58-2.95-6.58-6.58c0-3.63,2.95-6.58,6.58-6.58,3.63,0,6.58,2.94,6.58,6.58h0Z"/>
    <path id="Path_2361" class="st0" d="M64.93,67.13c5.41-3.42,12.58-1.81,16,3.6,1.17,1.85,1.79,4,1.8,6.19"/>
    <path id="Path_2362" class="st0" d="M54.69,35.44v-1.89c-.03-1.97.72-3.87,2.1-5.27,1.57-1.51,2.46-3.6,2.46-5.78,0-4.94-4.01-8.95-8.95-8.95s-8.95,4.01-8.95,8.95c0,2.18.89,4.26,2.46,5.78,1.41,1.39,2.2,3.29,2.21,5.27v5.08c0,1.92,1.55,3.47,3.47,3.47h1.71c1.92,0,3.47-1.55,3.47-3.47h0s0-3.2,0-3.2Z"/>
    <line id="Line_143" class="st0" x1="46.04" y1="36.98" x2="54.69" y2="36.98"/>
    <line id="Line_144" class="st0" x1="36.77" y1="13.62" x2="39.38" y2="16.22"/>
    <line id="Line_145" class="st0" x1="33.31" y1="27.16" x2="36.99" y2="27.16"/>
    <line id="Line_146" class="st0" x1="67.32" y1="27.16" x2="63.64" y2="27.16"/>
    <line id="Line_147" class="st0" x1="63.86" y1="13.62" x2="61.25" y2="16.22"/>
    <line id="Line_148" class="st0" x1="50.32" y1="7.07" x2="50.32" y2="10.76"/>
    <path id="Path_2363" class="st0" d="M59.12,56.34c0,4.92-3.98,8.9-8.9,8.9s-8.9-3.98-8.9-8.9c0-4.92,3.98-8.9,8.9-8.9s8.9,3.98,8.9,8.9c0,0,0,0,0,0Z"/>
    <path id="Path_2364" class="st0" d="M34.54,85.65c0-8.67,7.02-15.69,15.69-15.69s15.69,7.02,15.69,15.69"/>
    <path id="Path_2365" class="st0" d="M35.91,54.47c0,3.63-2.95,6.58-6.58,6.58-3.63,0-6.58-2.95-6.58-6.58,0-3.63,2.95-6.58,6.58-6.58s6.58,2.94,6.58,6.58h0Z"/>
    <path id="Path_2366" class="st0" d="M17.74,76.93c0-6.41,5.2-11.6,11.61-11.59,2.19,0,4.33.62,6.18,1.79"/>
    <path id="Path_2367" class="st0" d="M77.7,54.47c0,3.63-2.95,6.58-6.58,6.58s-6.58-2.95-6.58-6.58c0-3.63,2.95-6.58,6.58-6.58,3.63,0,6.58,2.94,6.58,6.58h0Z"/>
    <path id="Path_2368" class="st0" d="M64.93,67.13c5.41-3.42,12.58-1.81,16,3.6,1.17,1.85,1.79,4,1.8,6.19"/>
    <path id="Path_2369" class="st0" d="M54.69,35.44v-1.89c-.03-1.97.72-3.87,2.1-5.27,1.57-1.51,2.46-3.6,2.46-5.78,0-4.94-4.01-8.95-8.95-8.95s-8.95,4.01-8.95,8.95c0,2.18.89,4.26,2.46,5.78,1.41,1.39,2.2,3.29,2.21,5.27v5.08c0,1.92,1.55,3.47,3.47,3.47h1.71c1.92,0,3.47-1.55,3.47-3.47h0s0-3.2,0-3.2Z"/>
    <line id="Line_149" class="st0" x1="46.04" y1="36.98" x2="54.69" y2="36.98"/>
    <line id="Line_150" class="st0" x1="36.77" y1="13.62" x2="39.38" y2="16.22"/>
    <line id="Line_151" class="st0" x1="33.31" y1="27.16" x2="36.99" y2="27.16"/>
    <line id="Line_152" class="st0" x1="67.32" y1="27.16" x2="63.64" y2="27.16"/>
    <line id="Line_153" class="st0" x1="63.86" y1="13.62" x2="61.25" y2="16.22"/>
    <line id="Line_154" class="st0" x1="50.32" y1="7.07" x2="50.32" y2="10.76"/>
  </g>
</svg>