<?xml version="1.0" encoding="UTF-8"?>
<svg id="Icon_21" xmlns="http://www.w3.org/2000/svg" version="1.1" viewBox="0 0 100.47 92.73">
  <!-- Generator: Adobe Illustrator 29.8.1, SVG Export Plug-In . SVG Version: 2.1.1 Build 2)  -->
  <defs>
    <style>
      .st0 {
        fill: none;
        stroke: #27a49f;
        stroke-linecap: round;
        stroke-linejoin: round;
        stroke-width: 2px;
      }
    </style>
  </defs>
  <g id="Group_805">
    <path id="Path_2102" class="st0" d="M10.32,85.64v-8.47c0-2.02-.69-3.99-1.95-5.57-3.15-3.97-8.47-12.86-2.78-22.54,7.69-13.07,24.5-10.82,29.11-6.4,3.92,3.76,7.29,7.97,7.87,14.35.26,2.59,1.11,5.08,2.49,7.28,1.6,2.58,3.27,5.72,2.59,6.64-1.21,1.65-5.82.33-5.82.33v11.08s-.85,3.19-8.06,3.3-10.94-2.64-10.96-7.47"/>
    <path id="Path_2103" class="st0" d="M90.15,85.64v-8.47c0-2.02.69-3.99,1.94-5.57,3.15-3.97,8.47-12.86,2.78-22.54-7.69-13.07-24.5-10.82-29.11-6.4-3.92,3.76-7.29,7.97-7.87,14.35-.26,2.59-1.11,5.08-2.5,7.28-1.6,2.58-3.27,5.72-2.59,6.64,1.21,1.65,5.82.33,5.82.33v11.08s.85,3.19,8.06,3.3,10.94-2.64,10.96-7.47"/>
    <path id="Path_2104" class="st0" d="M71.07,11.79v18.49c0,2.6-2.11,4.71-4.71,4.72h-10.82l-3.94,5.42c-.45.75-1.43,1-2.18.55-.23-.13-.41-.32-.55-.55l-3.94-5.42h-10.81c-2.6,0-4.72-2.11-4.72-4.71,0,0,0,0,0,0V11.79c0-2.6,2.11-4.71,4.71-4.71,0,0,0,0,0,0h32.24c2.6,0,4.71,2.11,4.72,4.71h0Z"/>
    <path id="Path_2105" class="st0" d="M41.86,20.65l5.72,5.72,11.03-11.03"/>
    <path id="Path_2106" class="st0" d="M10.32,85.64v-8.47c0-2.02-.69-3.99-1.95-5.57-3.15-3.97-8.47-12.86-2.78-22.54,7.69-13.07,24.5-10.82,29.11-6.4,3.92,3.76,7.29,7.97,7.87,14.35.26,2.59,1.11,5.08,2.49,7.28,1.6,2.58,3.27,5.72,2.59,6.64-1.21,1.65-5.82.33-5.82.33v11.08s-.85,3.19-8.06,3.3-10.94-2.64-10.96-7.47"/>
    <path id="Path_2107" class="st0" d="M90.15,85.64v-8.47c0-2.02.69-3.99,1.94-5.57,3.15-3.97,8.47-12.86,2.78-22.54-7.69-13.07-24.5-10.82-29.11-6.4-3.92,3.76-7.29,7.97-7.87,14.35-.26,2.59-1.11,5.08-2.5,7.28-1.6,2.58-3.27,5.72-2.59,6.64,1.21,1.65,5.82.33,5.82.33v11.08s.85,3.19,8.06,3.3,10.94-2.64,10.96-7.47"/>
    <path id="Path_2108" class="st0" d="M71.07,11.79v18.49c0,2.6-2.11,4.71-4.71,4.72h-10.82l-3.94,5.42c-.45.75-1.43,1-2.18.55-.23-.13-.41-.32-.55-.55l-3.94-5.42h-10.81c-2.6,0-4.72-2.11-4.72-4.71,0,0,0,0,0,0V11.79c0-2.6,2.11-4.71,4.71-4.71,0,0,0,0,0,0h32.24c2.6,0,4.71,2.11,4.72,4.71h0Z"/>
    <path id="Path_2109" class="st0" d="M41.86,20.65l5.72,5.72,11.03-11.03"/>
  </g>
</svg>