<?xml version="1.0" encoding="UTF-8"?>
<svg id="Icon_5" xmlns="http://www.w3.org/2000/svg" version="1.1" viewBox="0 0 100.47 92.73">
  <!-- Generator: Adobe Illustrator 29.8.1, SVG Export Plug-In . SVG Version: 2.1.1 Build 2)  -->
  <defs>
    <style>
      .st0 {
        fill: none;
        stroke: #27a49f;
        stroke-linecap: round;
        stroke-linejoin: round;
        stroke-width: 2px;
      }
    </style>
  </defs>
  <g id="Group_733">
    <line id="Line_82" class="st0" x1="23.24" y1="79.14" x2="87.03" y2="79.14"/>
    <path id="Path_2150" class="st0" d="M28.05,34.8c2.64,3.91,1.61,9.23-2.31,11.87-3.91,2.64-9.23,1.61-11.87-2.31-2.64-3.91-1.61-9.23,2.31-11.87,3.91-2.64,9.23-1.61,11.87,2.31,0,0,0,0,0,0Z"/>
    <path id="Path_2151" class="st0" d="M21.94,63.67l8.54,12.66c.79,1.18,2.1,1.9,3.52,1.94l13.6.43c2.71.08,4.98-2.05,5.06-4.77.07-2.52-1.76-4.68-4.26-5.02l-10.15-1.35-5.95-8.82c-3.6-5.35-10.86-6.76-16.21-3.16-3.23,2.18-5.16,5.82-5.15,9.72l.1,18.72"/>
    <line id="Line_83" class="st0" x1="73.14" y1="79.14" x2="73.14" y2="69.34"/>
    <rect id="Rectangle_159" class="st0" x="57.1" y="46.72" width="32.42" height="22.61"/>
    <path id="Path_2152" class="st0" d="M72.71,38.29c2.54-5.95-.23-12.83-6.18-15.36-5.95-2.54-12.83.23-15.36,6.18-1.75,4.1-1.01,8.84,1.89,12.22"/>
    <path id="Path_2153" class="st0" d="M81.26,37.67h4.13c.87,0,1.57-.7,1.57-1.57v-4.81c0-.87-.7-1.57-1.57-1.57h-4.13c-.5-2.45-1.47-4.78-2.85-6.87l2.92-2.92c.61-.61.61-1.61,0-2.22,0,0,0,0,0,0l-3.4-3.4c-.61-.61-1.61-.61-2.22,0l-2.92,2.92c-2.09-1.38-4.42-2.34-6.87-2.85v-4.13c0-.87-.7-1.57-1.57-1.56h-4.81c-.86,0-1.57.7-1.57,1.56v4.13c-2.45.5-4.78,1.47-6.87,2.85l-2.92-2.92c-.61-.61-1.61-.61-2.22,0l-3.4,3.4c-.61.61-.61,1.61,0,2.22,0,0,0,0,0,0l2.92,2.92c-1.38,2.09-2.35,4.42-2.85,6.87h-4.13c-.87,0-1.57.7-1.57,1.57,0,0,0,0,0,0v4.8c0,.87.7,1.57,1.57,1.57h4.13c.51,2.45,1.47,4.78,2.85,6.87l-2.92,2.92c-.61.61-.61,1.61,0,2.22l3.4,3.4c.61.61,1.61.61,2.22,0h0s.87-.87.87-.87"/>
    <line id="Line_84" class="st0" x1="23.24" y1="79.14" x2="87.03" y2="79.14"/>
    <path id="Path_2154" class="st0" d="M28.05,34.8c2.64,3.91,1.61,9.23-2.31,11.87-3.91,2.64-9.23,1.61-11.87-2.31-2.64-3.91-1.61-9.23,2.31-11.87,3.91-2.64,9.23-1.61,11.87,2.31,0,0,0,0,0,0Z"/>
    <path id="Path_2155" class="st0" d="M21.94,63.67l8.54,12.66c.79,1.18,2.1,1.9,3.52,1.94l13.6.43c2.71.08,4.98-2.05,5.06-4.77.07-2.52-1.76-4.68-4.26-5.02l-10.15-1.35-5.95-8.82c-3.6-5.35-10.86-6.76-16.21-3.16-3.23,2.18-5.16,5.82-5.15,9.72l.1,18.72"/>
    <line id="Line_85" class="st0" x1="73.14" y1="79.14" x2="73.14" y2="69.34"/>
    <rect id="Rectangle_160" class="st0" x="57.1" y="46.72" width="32.42" height="22.61"/>
    <path id="Path_2156" class="st0" d="M72.71,38.29c2.54-5.95-.23-12.83-6.18-15.36-5.95-2.54-12.83.23-15.36,6.18-1.75,4.1-1.01,8.84,1.89,12.22"/>
    <path id="Path_2157" class="st0" d="M81.26,37.67h4.13c.87,0,1.57-.7,1.57-1.57v-4.81c0-.87-.7-1.57-1.57-1.57h-4.13c-.5-2.45-1.47-4.78-2.85-6.87l2.92-2.92c.61-.61.61-1.61,0-2.22,0,0,0,0,0,0l-3.4-3.4c-.61-.61-1.61-.61-2.22,0l-2.92,2.92c-2.09-1.38-4.42-2.34-6.87-2.85v-4.13c0-.87-.7-1.57-1.57-1.56h-4.81c-.86,0-1.57.7-1.57,1.56v4.13c-2.45.5-4.78,1.47-6.87,2.85l-2.92-2.92c-.61-.61-1.61-.61-2.22,0l-3.4,3.4c-.61.61-.61,1.61,0,2.22,0,0,0,0,0,0l2.92,2.92c-1.38,2.09-2.35,4.42-2.85,6.87h-4.13c-.87,0-1.57.7-1.57,1.57,0,0,0,0,0,0v4.8c0,.87.7,1.57,1.57,1.57h4.13c.51,2.45,1.47,4.78,2.85,6.87l-2.92,2.92c-.61.61-.61,1.61,0,2.22l3.4,3.4c.61.61,1.61.61,2.22,0h0s.87-.87.87-.87"/>
  </g>
</svg>