<?xml version="1.0" encoding="UTF-8"?>
<svg id="Icon_1" xmlns="http://www.w3.org/2000/svg" version="1.1" viewBox="0 0 100.47 92.73">
  <!-- Generator: Adobe Illustrator 29.8.1, SVG Export Plug-In . SVG Version: 2.1.1 Build 2)  -->
  <defs>
    <style>
      .st0 {
        fill: none;
        stroke: #27a49f;
        stroke-linecap: round;
        stroke-linejoin: round;
        stroke-width: 2px;
      }
    </style>
  </defs>
  <g id="Group_683">
    <path id="Path_2162" class="st0" d="M33.66,42.47c0-9.15,7.42-16.57,16.57-16.57s16.57,7.42,16.57,16.57"/>
    <path id="Path_2163" class="st0" d="M85.63,42.47v-3.41c0-1.23-.99-2.22-2.22-2.22h-5.84c-.71-3.47-2.08-6.77-4.04-9.73l4.13-4.13c.87-.87.87-2.27,0-3.14h0s-4.81-4.81-4.81-4.81c-.87-.87-2.27-.87-3.14,0l-4.13,4.14c-2.95-1.95-6.26-3.32-9.73-4.03v-5.84c0-1.23-.99-2.22-2.22-2.22h-6.81c-1.23,0-2.22.99-2.22,2.22v5.84c-3.47.71-6.77,2.08-9.73,4.04l-4.13-4.13c-.87-.87-2.27-.87-3.14,0h0s-4.81,4.81-4.81,4.81c-.87.87-.87,2.27,0,3.14h0s4.14,4.13,4.14,4.13c-1.95,2.95-3.32,6.26-4.03,9.73h-5.84c-1.23,0-2.22.99-2.22,2.22h0v3.4"/>
    <circle id="Ellipse_50" class="st0" cx="50.23" cy="56.52" r="8.84"/>
    <path id="Path_2164" class="st0" d="M34.64,85.65c0-8.61,6.98-15.59,15.59-15.59,8.61,0,15.59,6.98,15.59,15.59"/>
    <path id="Path_2165" class="st0" d="M36.17,53.75c0,4.08-3.31,7.39-7.39,7.39s-7.39-3.31-7.39-7.39,3.31-7.39,7.39-7.39h0c4.08,0,7.39,3.31,7.39,7.39Z"/>
    <path id="Path_2166" class="st0" d="M15.75,78.09c0-7.19,5.83-13.02,13.03-13.02,2.46,0,4.88.7,6.96,2.02"/>
    <path id="Path_2167" class="st0" d="M79.07,53.75c0,4.08-3.31,7.39-7.39,7.39-4.08,0-7.39-3.31-7.39-7.39,0-4.08,3.31-7.39,7.39-7.39,4.08,0,7.39,3.31,7.39,7.39Z"/>
    <path id="Path_2168" class="st0" d="M64.72,67.09c6.08-3.85,14.13-2.04,17.98,4.04,1.32,2.08,2.02,4.49,2.02,6.96"/>
    <path id="Path_2169" class="st0" d="M33.66,42.47c0-9.15,7.42-16.57,16.57-16.57s16.57,7.42,16.57,16.57"/>
    <path id="Path_2170" class="st0" d="M85.63,42.47v-3.41c0-1.23-.99-2.22-2.22-2.22h-5.84c-.71-3.47-2.08-6.77-4.04-9.73l4.13-4.13c.87-.87.87-2.27,0-3.14h0s-4.81-4.81-4.81-4.81c-.87-.87-2.27-.87-3.14,0l-4.13,4.14c-2.95-1.95-6.26-3.32-9.73-4.03v-5.84c0-1.23-.99-2.22-2.22-2.22h-6.81c-1.23,0-2.22.99-2.22,2.22v5.84c-3.47.71-6.77,2.08-9.73,4.04l-4.13-4.13c-.87-.87-2.27-.87-3.14,0h0s-4.81,4.81-4.81,4.81c-.87.87-.87,2.27,0,3.14h0s4.14,4.13,4.14,4.13c-1.95,2.95-3.32,6.26-4.03,9.73h-5.84c-1.23,0-2.22.99-2.22,2.22h0v3.4"/>
    <circle id="Ellipse_51" class="st0" cx="50.23" cy="56.52" r="8.84"/>
    <path id="Path_2171" class="st0" d="M34.64,85.65c0-8.61,6.98-15.59,15.59-15.59,8.61,0,15.59,6.98,15.59,15.59"/>
    <path id="Path_2172" class="st0" d="M36.17,53.75c0,4.08-3.31,7.39-7.39,7.39s-7.39-3.31-7.39-7.39,3.31-7.39,7.39-7.39h0c4.08,0,7.39,3.31,7.39,7.39Z"/>
    <path id="Path_2173" class="st0" d="M15.75,78.09c0-7.19,5.83-13.02,13.03-13.02,2.46,0,4.88.7,6.96,2.02"/>
    <path id="Path_2174" class="st0" d="M79.07,53.75c0,4.08-3.31,7.39-7.39,7.39-4.08,0-7.39-3.31-7.39-7.39,0-4.08,3.31-7.39,7.39-7.39,4.08,0,7.39,3.31,7.39,7.39Z"/>
    <path id="Path_2175" class="st0" d="M64.72,67.09c6.08-3.85,14.13-2.04,17.98,4.04,1.32,2.08,2.02,4.49,2.02,6.96"/>
  </g>
</svg>