<?xml version="1.0" encoding="UTF-8"?>
<svg id="Icon_18" xmlns="http://www.w3.org/2000/svg" version="1.1" viewBox="0 0 100.47 92.73">
  <!-- Generator: Adobe Illustrator 29.8.1, SVG Export Plug-In . SVG Version: 2.1.1 Build 2)  -->
  <defs>
    <style>
      .st0 {
        fill: none;
        stroke: #27a49f;
        stroke-linecap: round;
        stroke-linejoin: round;
        stroke-width: 2px;
      }
    </style>
  </defs>
  <g id="Group_772">
    <path id="Path_2342" class="st0" d="M75.72,77.57l1.71,8.08H24.01l1.69-8.03"/>
    <path id="Path_2343" class="st0" d="M30.71,51.49l2.71-10.53h34.59l2.7,10.48"/>
    <path id="Path_2344" class="st0" d="M11.15,70.24v-15.59c0-2.12.94-4.13,2.56-5.49,2.59-2.17,6.44-1.84,8.62.75.45.54.8,1.15,1.05,1.8l2.27,6.1c1.02,2.75,3.65,4.58,6.58,4.58h2.99c1.93-.1,3.58,1.38,3.68,3.31.1,1.93-1.38,3.58-3.31,3.68-.12,0-.25,0-.37,0h-9.15c-2.83,0-5.38-1.71-6.47-4.32l-1.67-4.03"/>
    <path id="Path_2345" class="st0" d="M23.98,38.58c0,3.24-2.63,5.87-5.87,5.87-3.24,0-5.87-2.63-5.87-5.87,0-3.24,2.63-5.87,5.87-5.87,3.24,0,5.87,2.63,5.87,5.87h0Z"/>
    <path id="Path_2346" class="st0" d="M89.32,70.24v-15.59c0-2.12-.94-4.13-2.56-5.49-2.59-2.17-6.44-1.84-8.62.75-.45.54-.8,1.15-1.05,1.8l-2.27,6.1c-1.02,2.75-3.65,4.58-6.58,4.58h-2.99c-1.93-.1-3.58,1.38-3.68,3.31-.1,1.93,1.38,3.58,3.31,3.68.12,0,.25,0,.37,0h9.15c2.83,0,5.38-1.71,6.47-4.32l1.67-4.03"/>
    <path id="Path_2347" class="st0" d="M76.48,38.58c0,3.24,2.63,5.87,5.87,5.87,3.24,0,5.87-2.63,5.87-5.87,0-3.24-2.63-5.87-5.87-5.87-3.24,0-5.87,2.63-5.87,5.87h0Z"/>
    <path id="Path_2348" class="st0" d="M39.86,17.37l-4.79,6.45,11.54,10.3,18.67-21.96-6.68-5.09-12.67,15.7-6.07-5.4Z"/>
    <path id="Path_2349" class="st0" d="M75.72,77.57l1.71,8.08H24.01l1.69-8.03"/>
    <path id="Path_2350" class="st0" d="M30.71,51.49l2.71-10.53h34.59l2.7,10.48"/>
    <path id="Path_2351" class="st0" d="M11.15,70.24v-15.59c0-2.12.94-4.13,2.56-5.49,2.59-2.17,6.44-1.84,8.62.75.45.54.8,1.15,1.05,1.8l2.27,6.1c1.02,2.75,3.65,4.58,6.58,4.58h2.99c1.93-.1,3.58,1.38,3.68,3.31.1,1.93-1.38,3.58-3.31,3.68-.12,0-.25,0-.37,0h-9.15c-2.83,0-5.38-1.71-6.47-4.32l-1.67-4.03"/>
    <path id="Path_2352" class="st0" d="M23.98,38.58c0,3.24-2.63,5.87-5.87,5.87-3.24,0-5.87-2.63-5.87-5.87,0-3.24,2.63-5.87,5.87-5.87,3.24,0,5.87,2.63,5.87,5.87h0Z"/>
    <path id="Path_2353" class="st0" d="M89.32,70.24v-15.59c0-2.12-.94-4.13-2.56-5.49-2.59-2.17-6.44-1.84-8.62.75-.45.54-.8,1.15-1.05,1.8l-2.27,6.1c-1.02,2.75-3.65,4.58-6.58,4.58h-2.99c-1.93-.1-3.58,1.38-3.68,3.31-.1,1.93,1.38,3.58,3.31,3.68.12,0,.25,0,.37,0h9.15c2.83,0,5.38-1.71,6.47-4.32l1.67-4.03"/>
    <path id="Path_2354" class="st0" d="M76.48,38.58c0,3.24,2.63,5.87,5.87,5.87,3.24,0,5.87-2.63,5.87-5.87,0-3.24-2.63-5.87-5.87-5.87-3.24,0-5.87,2.63-5.87,5.87h0Z"/>
    <path id="Path_2355" class="st0" d="M39.86,17.37l-4.79,6.45,11.54,10.3,18.67-21.96-6.68-5.09-12.67,15.7-6.07-5.4Z"/>
  </g>
</svg>