<?xml version="1.0" encoding="UTF-8"?>
<svg id="Icon_13" xmlns="http://www.w3.org/2000/svg" version="1.1" viewBox="0 0 100.47 92.73">
  <!-- Generator: Adobe Illustrator 29.8.1, SVG Export Plug-In . SVG Version: 2.1.1 Build 2)  -->
  <defs>
    <style>
      .st0 {
        fill: none;
        stroke: #27a49f;
        stroke-linecap: round;
        stroke-linejoin: round;
        stroke-width: 2px;
      }
    </style>
  </defs>
  <g id="Group_774">
    <path id="Path_2272" class="st0" d="M36.15,17.49c0,4.65-3.77,8.43-8.43,8.43s-8.43-3.77-8.43-8.43,3.77-8.43,8.43-8.43c4.65,0,8.43,3.77,8.43,8.43h0Z"/>
    <path id="Path_2273" class="st0" d="M16.46,71.09c-3.51-3.18-5.52-7.69-5.51-12.43v-11.41c0-9.27,7.52-16.78,16.8-16.78,2.27,0,4.52.46,6.6,1.36"/>
    <line id="Line_123" class="st0" x1="16.45" y1="52.95" x2="16.45" y2="84.75"/>
    <line id="Line_124" class="st0" x1="27.68" y1="84.75" x2="27.68" y2="75.44"/>
    <path id="Path_2274" class="st0" d="M81.14,17.49c0,4.64-3.77,8.41-8.41,8.41s-8.41-3.77-8.41-8.41,3.77-8.41,8.41-8.41,8.41,3.77,8.41,8.41h0Z"/>
    <path id="Path_2275" class="st0" d="M66.15,31.81c8.53-3.64,18.39.32,22.03,8.85.89,2.08,1.35,4.32,1.35,6.58v11.41c0,4.78-2.04,9.34-5.61,12.52"/>
    <line id="Line_125" class="st0" x1="72.69" y1="84.75" x2="72.69" y2="75.44"/>
    <line id="Line_126" class="st0" x1="83.91" y1="52.95" x2="83.91" y2="84.75"/>
    <path id="Path_2276" class="st0" d="M59.77,17.49c0,5.26-4.26,9.52-9.51,9.52-5.26,0-9.52-4.26-9.52-9.51,0-5.26,4.26-9.52,9.51-9.52h0c5.26,0,9.52,4.26,9.52,9.51Z"/>
    <path id="Path_2277" class="st0" d="M38.99,71.09c-3.52-3.18-5.52-7.7-5.51-12.44v-11.41c.07-9.27,7.64-16.72,16.91-16.65,9.17.07,16.58,7.49,16.65,16.65v11.41c0,4.78-2.03,9.34-5.61,12.52"/>
    <line id="Line_127" class="st0" x1="38.98" y1="52.95" x2="38.98" y2="84.75"/>
    <line id="Line_128" class="st0" x1="50.21" y1="84.75" x2="50.21" y2="75.44"/>
    <line id="Line_129" class="st0" x1="61.43" y1="52.95" x2="61.43" y2="84.75"/>
    <path id="Path_2278" class="st0" d="M36.15,17.49c0,4.65-3.77,8.43-8.43,8.43s-8.43-3.77-8.43-8.43,3.77-8.43,8.43-8.43c4.65,0,8.43,3.77,8.43,8.43h0Z"/>
    <path id="Path_2279" class="st0" d="M16.46,71.09c-3.51-3.18-5.52-7.69-5.51-12.43v-11.41c0-9.27,7.52-16.78,16.8-16.78,2.27,0,4.52.46,6.6,1.36"/>
    <line id="Line_130" class="st0" x1="16.45" y1="52.95" x2="16.45" y2="84.75"/>
    <line id="Line_131" class="st0" x1="27.68" y1="84.75" x2="27.68" y2="75.44"/>
    <path id="Path_2280" class="st0" d="M81.14,17.49c0,4.64-3.77,8.41-8.41,8.41s-8.41-3.77-8.41-8.41,3.77-8.41,8.41-8.41,8.41,3.77,8.41,8.41h0Z"/>
    <path id="Path_2281" class="st0" d="M66.15,31.81c8.53-3.64,18.39.32,22.03,8.85.89,2.08,1.35,4.32,1.35,6.58v11.41c0,4.78-2.04,9.34-5.61,12.52"/>
    <line id="Line_132" class="st0" x1="72.69" y1="84.75" x2="72.69" y2="75.44"/>
    <line id="Line_133" class="st0" x1="83.91" y1="52.95" x2="83.91" y2="84.75"/>
    <path id="Path_2282" class="st0" d="M59.77,17.49c0,5.26-4.26,9.52-9.51,9.52-5.26,0-9.52-4.26-9.52-9.51,0-5.26,4.26-9.52,9.51-9.52h0c5.26,0,9.52,4.26,9.52,9.51Z"/>
    <path id="Path_2283" class="st0" d="M38.99,71.09c-3.52-3.18-5.52-7.7-5.51-12.44v-11.41c.07-9.27,7.64-16.72,16.91-16.65,9.17.07,16.58,7.49,16.65,16.65v11.41c0,4.78-2.03,9.34-5.61,12.52"/>
    <line id="Line_134" class="st0" x1="38.98" y1="52.95" x2="38.98" y2="84.75"/>
    <line id="Line_135" class="st0" x1="50.21" y1="84.75" x2="50.21" y2="75.44"/>
    <line id="Line_136" class="st0" x1="61.43" y1="52.95" x2="61.43" y2="84.75"/>
  </g>
</svg>