<?xml version="1.0" encoding="UTF-8"?>
<svg id="Icon_17" xmlns="http://www.w3.org/2000/svg" version="1.1" viewBox="0 0 100.47 92.73">
  <!-- Generator: Adobe Illustrator 29.8.1, SVG Export Plug-In . SVG Version: 2.1.1 Build 2)  -->
  <defs>
    <style>
      .st0 {
        fill: none;
        stroke: #27a49f;
        stroke-linecap: round;
        stroke-linejoin: round;
        stroke-width: 2px;
      }
    </style>
  </defs>
  <g id="Group_773">
    <path id="Path_2332" class="st0" d="M78.01,57.41h11.51V7.11H10.94v50.31h67.07Z"/>
    <ellipse id="Ellipse_62" class="st0" cx="28.23" cy="70.24" rx="5.21" ry="5.31"/>
    <path id="Path_2333" class="st0" d="M19.48,85.62c1.19-3.85,4.73-6.48,8.76-6.52,2.45,0,4.79.99,6.49,2.75,1.04,1.06,1.81,2.35,2.25,3.77"/>
    <ellipse id="Ellipse_63" class="st0" cx="50.43" cy="70.24" rx="5.21" ry="5.31"/>
    <path id="Path_2334" class="st0" d="M41.68,85.62c1.19-3.85,4.73-6.48,8.76-6.52,2.45,0,4.79.99,6.49,2.75,1.04,1.06,1.81,2.35,2.25,3.77"/>
    <ellipse id="Ellipse_64" class="st0" cx="72.64" cy="70.24" rx="5.21" ry="5.31"/>
    <path id="Path_2335" class="st0" d="M63.89,85.62c1.19-3.85,4.73-6.48,8.76-6.52,2.45,0,4.79.99,6.49,2.75,1.04,1.06,1.81,2.35,2.25,3.77"/>
    <ellipse id="Ellipse_65" class="st0" cx="50.23" cy="23.84" rx="8.72" ry="8.89"/>
    <path id="Path_2336" class="st0" d="M35.59,49.58c2-6.43,7.92-10.84,14.65-10.91,4.09,0,8.01,1.66,10.86,4.6,1.74,1.77,3.04,3.94,3.77,6.31"/>
    <path id="Path_2337" class="st0" d="M78.01,57.41h11.51V7.11H10.94v50.31h67.07Z"/>
    <ellipse id="Ellipse_66" class="st0" cx="28.23" cy="70.24" rx="5.21" ry="5.31"/>
    <path id="Path_2338" class="st0" d="M19.48,85.62c1.19-3.85,4.73-6.48,8.76-6.52,2.45,0,4.79.99,6.49,2.75,1.04,1.06,1.81,2.35,2.25,3.77"/>
    <ellipse id="Ellipse_67" class="st0" cx="50.43" cy="70.24" rx="5.21" ry="5.31"/>
    <path id="Path_2339" class="st0" d="M41.68,85.62c1.19-3.85,4.73-6.48,8.76-6.52,2.45,0,4.79.99,6.49,2.75,1.04,1.06,1.81,2.35,2.25,3.77"/>
    <ellipse id="Ellipse_68" class="st0" cx="72.64" cy="70.24" rx="5.21" ry="5.31"/>
    <path id="Path_2340" class="st0" d="M63.89,85.62c1.19-3.85,4.73-6.48,8.76-6.52,2.45,0,4.79.99,6.49,2.75,1.04,1.06,1.81,2.35,2.25,3.77"/>
    <ellipse id="Ellipse_69" class="st0" cx="50.23" cy="23.84" rx="8.72" ry="8.89"/>
    <path id="Path_2341" class="st0" d="M35.59,49.58c2-6.43,7.92-10.84,14.65-10.91,4.09,0,8.01,1.66,10.86,4.6,1.74,1.77,3.04,3.94,3.77,6.31"/>
  </g>
</svg>