<?xml version="1.0" encoding="UTF-8"?>
<svg id="Icon_12" xmlns="http://www.w3.org/2000/svg" version="1.1" viewBox="0 0 100.47 92.73">
  <!-- Generator: Adobe Illustrator 29.8.1, SVG Export Plug-In . SVG Version: 2.1.1 Build 2)  -->
  <defs>
    <style>
      .st0 {
        fill: none;
        stroke: #27a49f;
        stroke-linecap: round;
        stroke-linejoin: round;
        stroke-width: 2px;
      }
    </style>
  </defs>
  <g id="Group_754">
    <path id="Path_2258" class="st0" d="M75.86,76.59l1.72,8.13H23.87l1.7-8.08"/>
    <path id="Path_2259" class="st0" d="M61.83,39.78h6.28l2.88,11.42"/>
    <path id="Path_2260" class="st0" d="M10.94,69.23v-15.67c0-2.13.94-4.15,2.57-5.51,2.6-2.18,6.48-1.85,8.66.75.45.54.81,1.15,1.05,1.81l2.28,6.13c1.03,2.77,3.67,4.6,6.62,4.6h3c1.94,0,3.51,1.57,3.51,3.51s-1.57,3.51-3.51,3.51h-9.2c-2.85,0-5.41-1.71-6.5-4.35l-1.67-4.05"/>
    <circle id="Ellipse_58" class="st0" cx="17.95" cy="37.4" r="5.9"/>
    <path id="Path_2261" class="st0" d="M89.52,69.23v-15.67c0-2.13-.94-4.15-2.57-5.51-2.6-2.18-6.48-1.85-8.66.75-.45.54-.81,1.15-1.05,1.81l-2.28,6.13c-1.03,2.77-3.67,4.6-6.62,4.6h-3c-1.94,0-3.51,1.57-3.51,3.51s1.57,3.51,3.51,3.51h9.2c2.85,0,5.41-1.71,6.5-4.35l1.68-4.05"/>
    <circle id="Ellipse_59" class="st0" cx="82.52" cy="37.4" r="5.9"/>
    <path id="Path_2262" class="st0" d="M31.25,39.36l8.06-8.06,9.24,8.44,21.05-21.05"/>
    <path id="Path_2263" class="st0" d="M30.01,29.22l9.3-9.31,9.24,8.45,15.36-15.35"/>
    <path id="Path_2264" class="st0" d="M69.59,18.7l3.7,3.71,1.3-14.41-14.4,1.3,3.71,3.7"/>
    <path id="Path_2265" class="st0" d="M75.86,76.59l1.72,8.13H23.87l1.7-8.08"/>
    <path id="Path_2266" class="st0" d="M61.83,39.78h6.28l2.88,11.42"/>
    <path id="Path_2267" class="st0" d="M10.94,69.23v-15.67c0-2.13.94-4.15,2.57-5.51,2.6-2.18,6.48-1.85,8.66.75.45.54.81,1.15,1.05,1.81l2.28,6.13c1.03,2.77,3.67,4.6,6.62,4.6h3c1.94,0,3.51,1.57,3.51,3.51s-1.57,3.51-3.51,3.51h-9.2c-2.85,0-5.41-1.71-6.5-4.35l-1.67-4.05"/>
    <circle id="Ellipse_60" class="st0" cx="17.95" cy="37.4" r="5.9"/>
    <path id="Path_2268" class="st0" d="M89.52,69.23v-15.67c0-2.13-.94-4.15-2.57-5.51-2.6-2.18-6.48-1.85-8.66.75-.45.54-.81,1.15-1.05,1.81l-2.28,6.13c-1.03,2.77-3.67,4.6-6.62,4.6h-3c-1.94,0-3.51,1.57-3.51,3.51s1.57,3.51,3.51,3.51h9.2c2.85,0,5.41-1.71,6.5-4.35l1.68-4.05"/>
    <circle id="Ellipse_61" class="st0" cx="82.52" cy="37.4" r="5.9"/>
    <path id="Path_2269" class="st0" d="M31.25,39.36l8.06-8.06,9.24,8.44,21.05-21.05"/>
    <path id="Path_2270" class="st0" d="M30.01,29.22l9.3-9.31,9.24,8.45,15.36-15.35"/>
    <path id="Path_2271" class="st0" d="M69.59,18.7l3.7,3.71,1.3-14.41-14.4,1.3,3.71,3.7"/>
  </g>
</svg>