<?xml version="1.0" encoding="UTF-8"?>
<svg id="Icon_9" xmlns="http://www.w3.org/2000/svg" version="1.1" viewBox="0 0 100.47 92.73">
  <!-- Generator: Adobe Illustrator 29.8.1, SVG Export Plug-In . SVG Version: 2.1.1 Build 2)  -->
  <defs>
    <style>
      .st0 {
        fill: none;
        stroke: #27a49f;
        stroke-linecap: round;
        stroke-linejoin: round;
        stroke-width: 2px;
      }
    </style>
  </defs>
  <g id="Group_748">
    <path id="Path_2210" class="st0" d="M50.24,39.87v-10.81h-11.59"/>
    <path id="Path_2211" class="st0" d="M29.05,29.06h-11.58v26.23"/>
    <path id="Path_2212" class="st0" d="M50.24,51.38v12.3h-23.43"/>
    <path id="Path_2213" class="st0" d="M50.24,51.38c-.76.39-1.6.59-2.45.59-3.36-.14-5.97-2.98-5.84-6.34-.14-3.36,2.47-6.2,5.84-6.34.85,0,1.69.2,2.45.59"/>
    <path id="Path_2214" class="st0" d="M29.05,29.06c-.68-1.08-1.04-2.33-1.03-3.6-.14-3.36,2.47-6.2,5.83-6.34,3.36.14,5.97,2.98,5.84,6.34,0,1.27-.35,2.52-1.03,3.6"/>
    <path id="Path_2215" class="st0" d="M11.44,77.62v-19.34c0-1.43.41-2.83,1.18-4.03l4.85-7.6"/>
    <path id="Path_2216" class="st0" d="M19.77,58.7l8.58-7.95c1.33-1.22,3.4-1.14,4.63.19,1.17,1.27,1.15,3.23-.04,4.48-4.52,3.5-7.4,8.71-7.94,14.4l-.2,2.1"/>
    <path id="Path_2217" class="st0" d="M36.19,63.67v2.73c0,1.59-.64,3.1-1.78,4.21l-1.3,1.26c-1.14,1.1-1.78,2.62-1.78,4.21v1.55"/>
    <path id="Path_2218" class="st0" d="M9.33,85.8v-8.18h24.91v8.18"/>
    <line id="Line_116" class="st0" x1="50.23" y1="63.66" x2="61.81" y2="63.66"/>
    <path id="Path_2219" class="st0" d="M71.42,63.66h11.58v-26.24"/>
    <line id="Line_117" class="st0" x1="50.23" y1="29.05" x2="73.65" y2="29.05"/>
    <path id="Path_2220" class="st0" d="M71.42,63.66c.68,1.08,1.04,2.33,1.03,3.6.27,3.22-2.12,6.05-5.35,6.33-3.22.27-6.05-2.12-6.33-5.35-.03-.33-.03-.65,0-.98,0-1.27.35-2.52,1.03-3.6"/>
    <path id="Path_2221" class="st0" d="M89.03,15.11v19.34c0,1.43-.41,2.83-1.18,4.03l-4.85,7.6"/>
    <path id="Path_2222" class="st0" d="M80.7,34.02l-8.58,7.95c-1.33,1.22-3.4,1.14-4.63-.19-1.17-1.27-1.15-3.23.04-4.48,4.52-3.5,7.4-8.71,7.94-14.4l.2-2.1"/>
    <path id="Path_2223" class="st0" d="M64.27,29.05v-2.73c0-1.59.64-3.1,1.78-4.21l1.3-1.26c1.14-1.1,1.78-2.62,1.79-4.21v-1.55"/>
    <path id="Path_2224" class="st0" d="M91.14,6.93v8.18h-24.92V6.93"/>
    <path id="Path_2225" class="st0" d="M50.24,39.87v-10.81h-11.59"/>
    <path id="Path_2226" class="st0" d="M29.05,29.06h-11.58v26.23"/>
    <path id="Path_2227" class="st0" d="M50.24,51.38v12.3h-23.43"/>
    <path id="Path_2228" class="st0" d="M50.24,51.38c-.76.39-1.6.59-2.45.59-3.36-.14-5.97-2.98-5.84-6.34-.14-3.36,2.47-6.2,5.84-6.34.85,0,1.69.2,2.45.59"/>
    <path id="Path_2229" class="st0" d="M29.05,29.06c-.68-1.08-1.04-2.33-1.03-3.6-.14-3.36,2.47-6.2,5.83-6.34,3.36.14,5.97,2.98,5.84,6.34,0,1.27-.35,2.52-1.03,3.6"/>
    <path id="Path_2230" class="st0" d="M11.44,77.62v-19.34c0-1.43.41-2.83,1.18-4.03l4.85-7.6"/>
    <path id="Path_2231" class="st0" d="M19.77,58.7l8.58-7.95c1.33-1.22,3.4-1.14,4.63.19,1.17,1.27,1.15,3.23-.04,4.48-4.52,3.5-7.4,8.71-7.94,14.4l-.2,2.1"/>
    <path id="Path_2232" class="st0" d="M36.19,63.67v2.73c0,1.59-.64,3.1-1.78,4.21l-1.3,1.26c-1.14,1.1-1.78,2.62-1.78,4.21v1.55"/>
    <path id="Path_2233" class="st0" d="M9.33,85.8v-8.18h24.91v8.18"/>
    <line id="Line_118" class="st0" x1="50.23" y1="63.66" x2="61.81" y2="63.66"/>
    <path id="Path_2234" class="st0" d="M71.42,63.66h11.58v-26.24"/>
    <line id="Line_119" class="st0" x1="50.23" y1="29.05" x2="73.65" y2="29.05"/>
    <path id="Path_2235" class="st0" d="M71.42,63.66c.68,1.08,1.04,2.33,1.03,3.6.27,3.22-2.12,6.05-5.35,6.33-3.22.27-6.05-2.12-6.33-5.35-.03-.33-.03-.65,0-.98,0-1.27.35-2.52,1.03-3.6"/>
    <path id="Path_2236" class="st0" d="M89.03,15.11v19.34c0,1.43-.41,2.83-1.18,4.03l-4.85,7.6"/>
    <path id="Path_2237" class="st0" d="M80.7,34.02l-8.58,7.95c-1.33,1.22-3.4,1.14-4.63-.19-1.17-1.27-1.15-3.23.04-4.48,4.52-3.5,7.4-8.71,7.94-14.4l.2-2.1"/>
    <path id="Path_2238" class="st0" d="M64.27,29.05v-2.73c0-1.59.64-3.1,1.78-4.21l1.3-1.26c1.14-1.1,1.78-2.62,1.79-4.21v-1.55"/>
    <path id="Path_2239" class="st0" d="M91.14,6.93v8.18h-24.92V6.93"/>
  </g>
</svg>