<?xml version="1.0" encoding="UTF-8"?>
<svg id="Layer_1" xmlns="http://www.w3.org/2000/svg" version="1.1" viewBox="0 0 1409.35 933">
  <!-- Generator: Adobe Illustrator 29.8.1, SVG Export Plug-In . SVG Version: 2.1.1 Build 2)  -->
  <defs>
    <style>
      .st0 {
        fill: #fb8c05;
      }
    </style>
  </defs>
  <path class="st0" d="M1409.35,913v-16.72h-804.47c-27.48-61.98-88.91-101.94-156.71-101.94-83.35,0-153,59.75-168.4,138.66h43.68c10.69-40.32,40.72-74.7,83.18-89.12,67.4-22.89,140.6,13.2,163.49,80.61l2.89,8.51h816.34c11.05,0,20-8.95,20-20Z"/>
  <path class="st0" d="M42.85,933c5.05-50.13,20.75-99.08,46.63-143.4,29.91-51.01,71.93-93.87,122.34-124.78h644.97c27.49,61.97,88.91,101.93,156.7,101.94,94.61,0,171.58-76.97,171.58-171.58s-76.97-171.58-171.58-171.58c-67.8,0-129.23,39.97-156.72,101.96h-444.84c-49.37-62.79-76.45-140.4-76.45-219.65,0-129.71,69.6-243.47,173.4-305.91h-73.18c-87.31,73.32-142.9,183.25-142.9,305.91,0,92.47,32.86,182.9,92.54,254.64l6.4,7.69h494.87l4.92-14.48c12.88-37.95,42.68-67.75,80.64-80.64,67.41-22.88,140.61,13.22,163.49,80.64,22.88,67.41-13.22,140.61-80.64,163.49-67.41,22.88-140.61-13.22-163.49-80.64l-4.92-14.48H200.06l-5.03,2.97C81.82,691.67,11.32,807.62,0,933h42.85Z"/>
  <path class="st0" d="M874.75,114.87c59.9,109.86,172.27,186.99,293.27,201.28l17.65,2.09,5.25-16.97c17.21-55.65,78.35-96.08,136.29-90.12,31.33,3.22,60.81,19.9,82.16,43.71v-56.75c-23.01-15.98-49.69-26.54-77.8-29.43-72.29-7.42-145.65,36.76-174.94,102.7-101.17-17.41-193.74-84.03-244.39-176.94-15.86-29.1-27.65-61.06-35.08-94.43h-43.58c8.1,40.62,21.97,79.6,41.19,114.87Z"/>
  <path class="st0" d="M941.36,329.16c63.91,43.98,137.14,72.49,212.06,82.48,1.53.2,3.72.5,4.88.78,1.31,1.96,2.49,4,3.54,6.11l.83,1.57c37.13,69.56,125.35,106.24,200.85,83.48,16.47-4.96,31.88-12.62,45.83-22.37v-57.26c-15.58,18.03-35.65,31.98-58.14,38.76-55.76,16.81-123.45-11.33-150.88-62.71l-.75-1.42c-3.7-7.01-8.77-16.6-19.24-22.85-7.7-4.6-15.55-5.65-21.58-6.45-68-9.07-134.81-35.1-193.21-75.29C865.01,224.8,797.93,118.05,778.35,0h-43.22c19.94,132.16,94.08,251.98,206.23,329.16Z"/>
</svg>