<?xml version="1.0" encoding="UTF-8"?>
<svg id="Layer_1" xmlns="http://www.w3.org/2000/svg" version="1.1" viewBox="0 0 40 40">
  <!-- Generator: Adobe Illustrator 29.8.1, SVG Export Plug-In . SVG Version: 2.1.1 Build 2)  -->
  <defs>
    <style>
      .st0 {
        fill: #fb8c05;
      }

      .st1 {
        fill: #fff;
      }
    </style>
  </defs>
  <g id="Group_846">
    <path id="Path_1997" class="st0" d="M20,40h0C8.95,40,0,31.05,0,20h0C0,8.96,8.95,0,20,0s20,8.96,20,20h0c0,11.04-8.95,20-20,20h0"/>
    <rect id="Rectangle_99" class="st1" x="10.93" y="15.54" width="4.14" height="13.37"/>
    <path id="Path_1998" class="st1" d="M12.98,13.79c1.36.01,2.48-1.08,2.49-2.45.01-1.36-1.08-2.48-2.45-2.49s-2.48,1.08-2.49,2.45c0,0,0,.01,0,.02,0,1.36,1.09,2.46,2.45,2.47h0"/>
    <path id="Path_1999" class="st1" d="M21.68,21.89c0-1.88.86-3,2.52-3,1.52,0,2.25,1.07,2.25,3v7.02h4.12v-8.46c0-3.58-2.03-5.31-4.87-5.31-1.64-.02-3.17.82-4.03,2.21v-1.81h-3.97v13.37h3.97v-7.02Z"/>
  </g>
</svg>