<?xml version="1.0" encoding="UTF-8"?>
<svg id="Icon_8" xmlns="http://www.w3.org/2000/svg" version="1.1" viewBox="0 0 100.47 92.73">
  <!-- Generator: Adobe Illustrator 29.8.1, SVG Export Plug-In . SVG Version: 2.1.1 Build 2)  -->
  <defs>
    <style>
      .st0 {
        fill: none;
        stroke: #27a49f;
        stroke-linecap: round;
        stroke-linejoin: round;
        stroke-width: 2px;
      }
    </style>
  </defs>
  <g id="Group_747">
    <path id="Path_2196" class="st0" d="M61.32,49.11c0,6.12-4.97,11.09-11.09,11.09s-11.09-4.97-11.09-11.09,4.97-11.09,11.09-11.09h0c6.12,0,11.09,4.97,11.09,11.09Z"/>
    <path id="Path_2197" class="st0" d="M30.67,85.65c0-10.8,8.76-19.56,19.56-19.56s19.56,8.76,19.56,19.56"/>
    <circle id="Ellipse_54" class="st0" cx="26" cy="46.4" r="8.2"/>
    <path id="Path_2198" class="st0" d="M11.55,73.41c0-7.98,6.47-14.45,14.46-14.45,2.73,0,5.41.78,7.72,2.24"/>
    <circle id="Ellipse_55" class="st0" cx="74.45" cy="46.4" r="8.2"/>
    <path id="Path_2199" class="st0" d="M66.73,61.2c6.75-4.27,15.68-2.26,19.95,4.49,1.46,2.31,2.24,4.99,2.24,7.72"/>
    <path id="Path_2200" class="st0" d="M51.25,7.81l2.27,6.97c.14.44.56.74,1.02.74h7.33c.59,0,1.07.48,1.07,1.07,0,.34-.16.66-.44.87l-5.94,4.32c-.38.27-.53.76-.39,1.2l2.27,6.98c.18.56-.12,1.17-.69,1.35-.33.11-.69.05-.96-.15l-5.93-4.32c-.38-.27-.89-.27-1.26,0l-5.94,4.31c-.48.35-1.15.24-1.5-.24-.2-.28-.26-.64-.15-.96l2.27-6.97c.14-.44-.01-.93-.39-1.2l-5.93-4.32c-.48-.35-.58-1.02-.23-1.5.2-.28.52-.44.87-.44h7.33c.46,0,.88-.3,1.02-.74l2.26-6.98c.18-.56.79-.87,1.35-.69.33.11.58.36.69.69Z"/>
    <path id="Path_2201" class="st0" d="M24.59,9.72l1.83,5.63c.12.36.45.6.82.6h5.92c.48,0,.87.39.87.86,0,.28-.13.54-.36.7l-4.79,3.47c-.3.22-.43.61-.31.97l1.83,5.63c.15.45-.1.94-.56,1.09-.26.09-.55.04-.78-.12l-4.79-3.48c-.3-.22-.71-.22-1.02,0l-4.79,3.47c-.39.28-.93.19-1.21-.2-.16-.22-.21-.51-.12-.77l1.83-5.63c.12-.36,0-.75-.31-.97l-4.79-3.47c-.39-.28-.47-.82-.19-1.21.16-.22.42-.36.7-.36h5.92c.38,0,.71-.24.82-.6l1.83-5.63c.15-.45.64-.7,1.09-.55.26.09.47.29.55.56Z"/>
    <path id="Path_2202" class="st0" d="M75.87,9.72l-1.83,5.63c-.12.36-.45.6-.82.6h-5.91c-.48,0-.87.39-.87.86,0,.28.13.54.36.7l4.79,3.47c.3.22.43.61.31.97l-1.83,5.63c-.15.45.1.94.56,1.09.26.09.55.04.78-.12l4.79-3.48c.3-.22.71-.22,1.02,0l4.79,3.48c.39.28.93.19,1.21-.19.16-.22.21-.51.12-.78l-1.83-5.63c-.12-.36.01-.75.31-.97l4.79-3.48c.39-.28.47-.82.19-1.21-.16-.22-.42-.36-.7-.36h-5.92c-.38,0-.71-.24-.82-.6l-1.82-5.63c-.15-.45-.64-.7-1.09-.55-.26.09-.47.29-.55.55Z"/>
    <path id="Path_2203" class="st0" d="M61.32,49.11c0,6.12-4.97,11.09-11.09,11.09s-11.09-4.97-11.09-11.09,4.97-11.09,11.09-11.09h0c6.12,0,11.09,4.97,11.09,11.09Z"/>
    <path id="Path_2204" class="st0" d="M30.67,85.65c0-10.8,8.76-19.56,19.56-19.56s19.56,8.76,19.56,19.56"/>
    <circle id="Ellipse_56" class="st0" cx="26" cy="46.4" r="8.2"/>
    <path id="Path_2205" class="st0" d="M11.55,73.41c0-7.98,6.47-14.45,14.46-14.45,2.73,0,5.41.78,7.72,2.24"/>
    <circle id="Ellipse_57" class="st0" cx="74.45" cy="46.4" r="8.2"/>
    <path id="Path_2206" class="st0" d="M66.73,61.2c6.75-4.27,15.68-2.26,19.95,4.49,1.46,2.31,2.24,4.99,2.24,7.72"/>
    <path id="Path_2207" class="st0" d="M51.25,7.81l2.27,6.97c.14.44.56.74,1.02.74h7.33c.59,0,1.07.48,1.07,1.07,0,.34-.16.66-.44.87l-5.94,4.32c-.38.27-.53.76-.39,1.2l2.27,6.98c.18.56-.12,1.17-.69,1.35-.33.11-.69.05-.96-.15l-5.93-4.32c-.38-.27-.89-.27-1.26,0l-5.94,4.31c-.48.35-1.15.24-1.5-.24-.2-.28-.26-.64-.15-.96l2.27-6.97c.14-.44-.01-.93-.39-1.2l-5.93-4.32c-.48-.35-.58-1.02-.23-1.5.2-.28.52-.44.87-.44h7.33c.46,0,.88-.3,1.02-.74l2.26-6.98c.18-.56.79-.87,1.35-.69.33.11.58.36.69.69Z"/>
    <path id="Path_2208" class="st0" d="M24.59,9.72l1.83,5.63c.12.36.45.6.82.6h5.92c.48,0,.87.39.87.86,0,.28-.13.54-.36.7l-4.79,3.47c-.3.22-.43.61-.31.97l1.83,5.63c.15.45-.1.94-.56,1.09-.26.09-.55.04-.78-.12l-4.79-3.48c-.3-.22-.71-.22-1.02,0l-4.79,3.47c-.39.28-.93.19-1.21-.2-.16-.22-.21-.51-.12-.77l1.83-5.63c.12-.36,0-.75-.31-.97l-4.79-3.47c-.39-.28-.47-.82-.19-1.21.16-.22.42-.36.7-.36h5.92c.38,0,.71-.24.82-.6l1.83-5.63c.15-.45.64-.7,1.09-.55.26.09.47.29.55.56Z"/>
    <path id="Path_2209" class="st0" d="M75.87,9.72l-1.83,5.63c-.12.36-.45.6-.82.6h-5.91c-.48,0-.87.39-.87.86,0,.28.13.54.36.7l4.79,3.47c.3.22.43.61.31.97l-1.83,5.63c-.15.45.1.94.56,1.09.26.09.55.04.78-.12l4.79-3.48c.3-.22.71-.22,1.02,0l4.79,3.48c.39.28.93.19,1.21-.19.16-.22.21-.51.12-.78l-1.83-5.63c-.12-.36.01-.75.31-.97l4.79-3.48c.39-.28.47-.82.19-1.21-.16-.22-.42-.36-.7-.36h-5.92c-.38,0-.71-.24-.82-.6l-1.82-5.63c-.15-.45-.64-.7-1.09-.55-.26.09-.47.29-.55.55Z"/>
  </g>
</svg>