<?xml version="1.0" encoding="UTF-8"?>
<svg id="Icon_2" xmlns="http://www.w3.org/2000/svg" version="1.1" viewBox="0 0 100.47 92.73">
  <!-- Generator: Adobe Illustrator 29.8.1, SVG Export Plug-In . SVG Version: 2.1.1 Build 2)  -->
  <defs>
    <style>
      .st0 {
        fill: none;
        stroke: #27a49f;
        stroke-linecap: round;
        stroke-linejoin: round;
        stroke-width: 2px;
      }
    </style>
  </defs>
  <g id="Group_684">
    <line id="Line_76" class="st0" x1="23.24" y1="79.96" x2="87.03" y2="79.96"/>
    <path id="Path_2140" class="st0" d="M28.05,35.61c2.64,3.92,1.6,9.23-2.31,11.87-3.92,2.64-9.23,1.6-11.87-2.31-2.64-3.92-1.6-9.23,2.31-11.87,3.92-2.64,9.23-1.6,11.87,2.31,0,0,0,0,0,0Z"/>
    <path id="Path_2141" class="st0" d="M21.94,64.48l8.54,12.66c.79,1.18,2.1,1.9,3.52,1.94l13.6.43c2.71.08,4.98-2.05,5.06-4.77.07-2.52-1.76-4.68-4.26-5.02l-10.15-1.35-5.95-8.82c-3.6-5.35-10.86-6.76-16.21-3.16-3.23,2.18-5.16,5.82-5.15,9.72l.1,18.72"/>
    <line id="Line_77" class="st0" x1="73.13" y1="79.96" x2="73.13" y2="70.15"/>
    <rect id="Rectangle_156" class="st0" x="57.1" y="47.53" width="32.42" height="22.61"/>
    <path id="Path_2142" class="st0" d="M76.26,12.7v18.79c0,2.66-1.72,4.82-3.84,4.82h-18.92l-4.45,5.95c-.77,1.03-2.23,1.24-3.26.47-.59-.44-.93-1.13-.93-1.86v-4.56h-5.28c-2.12,0-3.84-2.16-3.84-4.82V12.7c0-2.66,1.72-4.82,3.84-4.82h32.84c2.12,0,3.84,2.16,3.84,4.82Z"/>
    <path id="Path_2143" class="st0" d="M52.38,18.82h3.62v10.9"/>
    <path id="Path_2144" class="st0" d="M57.26,14.6c0,.92-.75,1.66-1.66,1.66-.92,0-1.66-.75-1.66-1.66,0-.92.74-1.66,1.66-1.66.92,0,1.66.74,1.66,1.66h0Z"/>
    <line id="Line_78" class="st0" x1="51.57" y1="29.72" x2="60.42" y2="29.72"/>
    <line id="Line_79" class="st0" x1="23.24" y1="79.96" x2="87.03" y2="79.96"/>
    <path id="Path_2145" class="st0" d="M28.05,35.61c2.64,3.92,1.6,9.23-2.31,11.87-3.92,2.64-9.23,1.6-11.87-2.31-2.64-3.92-1.6-9.23,2.31-11.87,3.92-2.64,9.23-1.6,11.87,2.31,0,0,0,0,0,0Z"/>
    <path id="Path_2146" class="st0" d="M21.94,64.48l8.54,12.66c.79,1.18,2.1,1.9,3.52,1.94l13.6.43c2.71.08,4.98-2.05,5.06-4.77.07-2.52-1.76-4.68-4.26-5.02l-10.15-1.35-5.95-8.82c-3.6-5.35-10.86-6.76-16.21-3.16-3.23,2.18-5.16,5.82-5.15,9.72l.1,18.72"/>
    <line id="Line_80" class="st0" x1="73.13" y1="79.96" x2="73.13" y2="70.15"/>
    <rect id="Rectangle_157" class="st0" x="57.1" y="47.53" width="32.42" height="22.61"/>
    <path id="Path_2147" class="st0" d="M76.26,12.7v18.79c0,2.66-1.72,4.82-3.84,4.82h-18.92l-4.45,5.95c-.77,1.03-2.23,1.24-3.26.47-.59-.44-.93-1.13-.93-1.86v-4.56h-5.28c-2.12,0-3.84-2.16-3.84-4.82V12.7c0-2.66,1.72-4.82,3.84-4.82h32.84c2.12,0,3.84,2.16,3.84,4.82Z"/>
    <path id="Path_2148" class="st0" d="M52.38,18.82h3.62v10.9"/>
    <path id="Path_2149" class="st0" d="M57.26,14.6c0,.92-.75,1.66-1.66,1.66-.92,0-1.66-.75-1.66-1.66,0-.92.74-1.66,1.66-1.66.92,0,1.66.74,1.66,1.66h0Z"/>
    <line id="Line_81" class="st0" x1="51.57" y1="29.72" x2="60.42" y2="29.72"/>
  </g>
</svg>