<?xml version="1.0" encoding="UTF-8"?>
<svg id="Icon_11" xmlns="http://www.w3.org/2000/svg" version="1.1" viewBox="0 0 100.47 92.73">
  <!-- Generator: Adobe Illustrator 29.8.1, SVG Export Plug-In . SVG Version: 2.1.1 Build 2)  -->
  <defs>
    <style>
      .st0 {
        fill: none;
        stroke: #27a49f;
        stroke-linecap: round;
        stroke-linejoin: round;
        stroke-width: 2px;
      }
    </style>
  </defs>
  <g id="Group_755">
    <path id="Path_2240" class="st0" d="M22.2,18.75l8.66,5-16.57,28.7-8.66-5"/>
    <path id="Path_2241" class="st0" d="M78.27,18.53l-8.66,5,16.57,28.7,8.66-5"/>
    <path id="Path_2242" class="st0" d="M72.29,28.16c-2.39,1.18-5.12,1.48-7.71.84-4.2-1.1-15.47-1.97-22.1.34-5.36,3.03-10.22,12.64-6.85,14.35s11.55-8.34,14.09-7.51c2.36.77,21.09,12.3,25.79,16.59.5.46,1.26.49,1.8.07,1.88-1.46,5.86-4.49,6.55-4.65"/>
    <path id="Path_2243" class="st0" d="M46.9,71.68s7.46,3,10.11,2.15,3.81-4.56,3.81-4.56l-9.86-4.47"/>
    <path id="Path_2244" class="st0" d="M60.82,69.27c4.47,2.9,6.19-3.83,6.19-3.83l-12.2-7.4"/>
    <path id="Path_2245" class="st0" d="M65.19,64.35c6.98,2.72,6.98-4.51,6.98-4.51l-13.54-8.21"/>
    <path id="Path_2246" class="st0" d="M71.39,59.36c2.88,1.75,4.46.92,5.32-.53,1.21-2.11.61-4.78-1.38-6.18l-9.94-7.14"/>
    <line id="Line_120" class="st0" x1="17.39" y1="47.07" x2="22.7" y2="53.14"/>
    <path id="Path_2247" class="st0" d="M28.47,27.88s5.25,3.71,10.91,3.96"/>
    <path id="Path_2248" class="st0" d="M28.37,51.53l.59.46c1.1.86,1.3,2.46.43,3.56,0,0,0,0,0,0l-3.55,4.53c-.86,1.1-2.46,1.3-3.56.43,0,0,0,0,0,0l-.59-.46c-1.1-.86-1.3-2.46-.43-3.56l3.55-4.53c.86-1.1,2.46-1.3,3.56-.43Z"/>
    <rect id="Rectangle_171" class="st0" x="38.81" y="65.62" width="10.83" height="6.82" rx="2.97" ry="2.97" transform="translate(-37.39 61.26) rotate(-51.91)"/>
    <path id="Rectangle_172" class="st0" d="M26.2,60l5.62-7.17c1.2-1.53,3.41-1.8,4.94-.6l.81.64c1.53,1.2,1.8,3.41.6,4.94h0s-5.62,7.17-5.62,7.17c-1.2,1.53-3.41,1.8-4.94.6,0,0,0,0,0,0l-.81-.64c-1.53-1.2-1.8-3.41-.6-4.94h0Z"/>
    <path id="Rectangle_173" class="st0" d="M33.37,65.21l4.76-6.08c1.02-1.3,2.89-1.52,4.19-.51l.69.54c1.29,1.01,1.52,2.89.51,4.18,0,0,0,0,0,0l-4.76,6.07c-1.02,1.3-2.89,1.52-4.19.51l-.69-.54c-1.29-1.01-1.52-2.89-.51-4.18h0Z"/>
    <path id="Path_2249" class="st0" d="M22.2,18.75l8.66,5-16.57,28.7-8.66-5"/>
    <path id="Path_2250" class="st0" d="M78.27,18.53l-8.66,5,16.57,28.7,8.66-5"/>
    <path id="Path_2251" class="st0" d="M72.29,28.16c-2.39,1.18-5.12,1.48-7.71.84-4.2-1.1-15.47-1.97-22.1.34-5.36,3.03-10.22,12.64-6.85,14.35s11.55-8.34,14.09-7.51c2.36.77,21.09,12.3,25.79,16.59.5.46,1.26.49,1.8.07,1.88-1.46,5.86-4.49,6.55-4.65"/>
    <path id="Path_2252" class="st0" d="M46.9,71.68s7.46,3,10.11,2.15,3.81-4.56,3.81-4.56l-9.86-4.47"/>
    <path id="Path_2253" class="st0" d="M60.82,69.27c4.47,2.9,6.19-3.83,6.19-3.83l-12.2-7.4"/>
    <path id="Path_2254" class="st0" d="M65.19,64.35c6.98,2.72,6.98-4.51,6.98-4.51l-13.54-8.21"/>
    <path id="Path_2255" class="st0" d="M71.39,59.36c2.88,1.75,4.46.92,5.32-.53,1.21-2.11.61-4.78-1.38-6.18l-9.94-7.14"/>
    <line id="Line_121" class="st0" x1="17.39" y1="47.07" x2="22.7" y2="53.14"/>
    <path id="Path_2256" class="st0" d="M28.47,27.88s5.25,3.71,10.91,3.96"/>
    <path id="Path_2257" class="st0" d="M28.37,51.53l.59.46c1.1.86,1.3,2.46.43,3.56,0,0,0,0,0,0l-3.55,4.53c-.86,1.1-2.46,1.3-3.56.43,0,0,0,0,0,0l-.59-.46c-1.1-.86-1.3-2.46-.43-3.56l3.55-4.53c.86-1.1,2.46-1.3,3.56-.43Z"/>
    <rect id="Rectangle_174" class="st0" x="38.81" y="65.62" width="10.83" height="6.82" rx="2.97" ry="2.97" transform="translate(-37.39 61.26) rotate(-51.91)"/>
    <path id="Rectangle_175" class="st0" d="M26.2,60l5.62-7.17c1.2-1.53,3.41-1.8,4.94-.6l.81.64c1.53,1.2,1.8,3.41.6,4.94h0s-5.62,7.17-5.62,7.17c-1.2,1.53-3.41,1.8-4.94.6,0,0,0,0,0,0l-.81-.64c-1.53-1.2-1.8-3.41-.6-4.94h0Z"/>
    <path id="Rectangle_176" class="st0" d="M33.37,65.21l4.76-6.08c1.02-1.3,2.89-1.52,4.19-.51l.69.54c1.29,1.01,1.52,2.89.51,4.18,0,0,0,0,0,0l-4.76,6.07c-1.02,1.3-2.89,1.52-4.19.51l-.69-.54c-1.29-1.01-1.52-2.89-.51-4.18h0Z"/>
  </g>
</svg>