<?xml version="1.0" encoding="UTF-8"?>
<svg id="Icon_6" xmlns="http://www.w3.org/2000/svg" version="1.1" viewBox="0 0 100.47 92.73">
  <!-- Generator: Adobe Illustrator 29.8.1, SVG Export Plug-In . SVG Version: 2.1.1 Build 2)  -->
  <defs>
    <style>
      .st0 {
        fill: none;
        stroke: #27a49f;
        stroke-linecap: round;
        stroke-linejoin: round;
        stroke-width: 2px;
      }
    </style>
  </defs>
  <g id="Group_750">
    <line id="Line_104" class="st0" x1="54.65" y1="36.36" x2="80.85" y2="36.36"/>
    <line id="Line_105" class="st0" x1="80.85" y1="51.14" x2="54.65" y2="51.14"/>
    <line id="Line_106" class="st0" x1="80.85" y1="65.12" x2="54.65" y2="65.12"/>
    <path id="Path_2177" class="st0" d="M38.27,36.71l3.54,3.54,6.83-6.83"/>
    <path id="Path_2178" class="st0" d="M38.27,51.01l3.54,3.54,6.83-6.83"/>
    <path id="Path_2179" class="st0" d="M59.58,7.3h13.42v4.5h-4.29v4.07l6.47,5.54h-31.24l6.47-5.54v-4.08h-4.29v-4.5h13.45Z"/>
    <path id="Path_2180" class="st0" d="M29.6,40.26V14.35h12.87"/>
    <path id="Path_2181" class="st0" d="M77.51,14.35h12.01v69.34h-37.6"/>
    <rect id="Rectangle_169" class="st0" x="10.94" y="65.46" width="10.12" height="19.97"/>
    <path id="Path_2182" class="st0" d="M21.07,67.89s5.83-7.26,6.83-11.08-.42-5.53.37-6.4,7.17.7,5.65,8.11c-.22,1.47-.52,2.92-.9,4.36h11.14c1.4.04,2.5,1.19,2.48,2.59,0,2.48-2.48,2.96-4.22,2.96,0,0,3.91,0,3.91,3.06s-4.82,2.75-4.82,2.75c0,0,3.61-.05,3.61,2.85s-4.49,2.75-4.49,2.75c0,0,2.8.11,2.8,2.49s-2.96,2.53-2.96,2.53h-14.81c-1.75-.33-3.35-1.19-4.59-2.46"/>
    <line id="Line_107" class="st0" x1="54.65" y1="36.36" x2="80.85" y2="36.36"/>
    <line id="Line_108" class="st0" x1="80.85" y1="51.14" x2="54.65" y2="51.14"/>
    <line id="Line_109" class="st0" x1="80.85" y1="65.12" x2="54.65" y2="65.12"/>
    <path id="Path_2183" class="st0" d="M38.27,36.71l3.54,3.54,6.83-6.83"/>
    <path id="Path_2184" class="st0" d="M38.27,51.01l3.54,3.54,6.83-6.83"/>
    <path id="Path_2185" class="st0" d="M59.58,7.3h13.42v4.5h-4.29v4.07l6.47,5.54h-31.24l6.47-5.54v-4.08h-4.29v-4.5h13.45Z"/>
    <path id="Path_2186" class="st0" d="M29.6,40.26V14.35h12.87"/>
    <path id="Path_2187" class="st0" d="M77.51,14.35h12.01v69.34h-37.6"/>
    <rect id="Rectangle_170" class="st0" x="10.94" y="65.46" width="10.12" height="19.97"/>
    <path id="Path_2188" class="st0" d="M21.07,67.89s5.83-7.26,6.83-11.08-.42-5.53.37-6.4,7.17.7,5.65,8.11c-.22,1.47-.52,2.92-.9,4.36h11.14c1.4.04,2.5,1.19,2.48,2.59,0,2.48-2.48,2.96-4.22,2.96,0,0,3.91,0,3.91,3.06s-4.82,2.75-4.82,2.75c0,0,3.61-.05,3.61,2.85s-4.49,2.75-4.49,2.75c0,0,2.8.11,2.8,2.49s-2.96,2.53-2.96,2.53h-14.81c-1.75-.33-3.35-1.19-4.59-2.46"/>
  </g>
</svg>