<?xml version="1.0" encoding="UTF-8"?>
<svg id="Icon_4" xmlns="http://www.w3.org/2000/svg" version="1.1" viewBox="0 0 100.47 92.73">
  <!-- Generator: Adobe Illustrator 29.8.1, SVG Export Plug-In . SVG Version: 2.1.1 Build 2)  -->
  <defs>
    <style>
      .st0 {
        fill: none;
        stroke: #27a49f;
        stroke-linecap: round;
        stroke-linejoin: round;
        stroke-width: 2px;
      }
    </style>
  </defs>
  <g id="Group_686">
    <path id="Path_2158" class="st0" d="M10.94,84.33l2.27-22.61c.36-3.6,3.39-6.33,7-6.33h2.43c3.09,0,5.86,1.92,6.95,4.81l3.63,9.65c.32.86,1.15,1.43,2.07,1.43h6.36c2.18,0,3.94,1.76,3.94,3.94s-1.76,3.94-3.94,3.94h-9.71c-1.73,0-3.33-.94-4.17-2.46l-3.79-6.85"/>
    <line id="Line_102" class="st0" x1="29.16" y1="78.27" x2="29.02" y2="84.33"/>
    <circle id="Ellipse_48" class="st0" cx="23.44" cy="44.86" r="7.27"/>
    <path id="Path_2159" class="st0" d="M89.52,84.33l-2.27-22.61c-.36-3.6-3.39-6.33-7-6.33h-2.43c-3.09,0-5.86,1.92-6.95,4.81l-3.63,9.65c-.32.86-1.15,1.43-2.07,1.43h-6.36c-2.18,0-3.94,1.76-3.94,3.94s1.76,3.94,3.94,3.94h9.71c1.73,0,3.33-.94,4.17-2.46l3.79-6.85"/>
    <line id="Line_103" class="st0" x1="71.45" y1="84.33" x2="71.31" y2="78.27"/>
    <circle id="Ellipse_49" class="st0" cx="77.02" cy="44.86" r="7.27"/>
    <path id="Path_2160" class="st0" d="M48.78,36.4h5.7l3.71,4.96c.64.86,1.86,1.03,2.72.38.48-.36.77-.93.77-1.54v-3.8h4.4c1.77,0,3.2-1.8,3.2-4.01v-15.67"/>
    <path id="Path_2161" class="st0" d="M64.19,12.41v15.66c0,2.22-1.43,4.01-3.2,4.01h-15.77l-3.71,4.96c-.64.86-1.86,1.03-2.72.39-.49-.37-.78-.94-.78-1.55v-3.8h-4.4c-1.77,0-3.2-1.8-3.2-4.01v-15.66c0-2.22,1.43-4.01,3.2-4.01h27.37c1.77,0,3.2,1.8,3.2,4.01Z"/>
  </g>
</svg>