<?xml version="1.0" encoding="UTF-8"?>
<svg id="Icon_3" xmlns="http://www.w3.org/2000/svg" version="1.1" viewBox="0 0 100.47 92.73">
  <!-- Generator: Adobe Illustrator 29.8.1, SVG Export Plug-In . SVG Version: 2.1.1 Build 2)  -->
  <defs>
    <style>
      .st0 {
        fill: none;
        stroke: #27a49f;
        stroke-linecap: round;
        stroke-linejoin: round;
        stroke-width: 2px;
      }
    </style>
  </defs>
  <g id="Group_685">
    <path id="Rectangle_162" class="st0" d="M14.86,12.83h70.74c2.16,0,3.92,1.75,3.92,3.92v59.23c0,2.16-1.75,3.92-3.92,3.92H14.86c-2.16,0-3.92-1.75-3.92-3.92V16.75c0-2.16,1.76-3.92,3.92-3.92Z"/>
    <line id="Line_86" class="st0" x1="11" y1="24.04" x2="89.52" y2="24.04"/>
    <line id="Line_87" class="st0" x1="19.67" y1="18.9" x2="30.74" y2="18.9"/>
    <line id="Line_88" class="st0" x1="35.51" y1="18.9" x2="40.74" y2="18.9"/>
    <line id="Line_89" class="st0" x1="45.79" y1="18.9" x2="51.02" y2="18.9"/>
    <line id="Line_90" class="st0" x1="63.4" y1="45.07" x2="65.93" y2="58.01"/>
    <line id="Line_91" class="st0" x1="65.93" y1="58.01" x2="70.89" y2="45.07"/>
    <line id="Line_92" class="st0" x1="78.37" y1="45.07" x2="75.84" y2="58.01"/>
    <line id="Line_93" class="st0" x1="75.84" y1="58.01" x2="70.88" y2="45.07"/>
    <line id="Line_94" class="st0" x1="42.75" y1="45.07" x2="45.27" y2="58.01"/>
    <line id="Line_95" class="st0" x1="45.28" y1="58.01" x2="50.23" y2="45.07"/>
    <line id="Line_96" class="st0" x1="57.72" y1="45.07" x2="55.19" y2="58.01"/>
    <line id="Line_97" class="st0" x1="55.19" y1="58.01" x2="50.23" y2="45.07"/>
    <line id="Line_98" class="st0" x1="22.1" y1="45.07" x2="24.62" y2="58.01"/>
    <line id="Line_99" class="st0" x1="24.62" y1="58.01" x2="29.58" y2="45.07"/>
    <line id="Line_100" class="st0" x1="37.06" y1="45.07" x2="34.54" y2="58.01"/>
    <line id="Line_101" class="st0" x1="34.54" y1="58.01" x2="29.58" y2="45.07"/>
  </g>
</svg>