<?xml version="1.0" encoding="UTF-8"?>
<svg id="Icon_10" xmlns="http://www.w3.org/2000/svg" version="1.1" viewBox="0 0 100.47 92.73">
  <!-- Generator: Adobe Illustrator 29.8.1, SVG Export Plug-In . SVG Version: 2.1.1 Build 2)  -->
  <defs>
    <style>
      .st0 {
        fill: none;
        stroke: #27a49f;
        stroke-linecap: round;
        stroke-linejoin: round;
        stroke-width: 2px;
      }
    </style>
  </defs>
  <g id="Group_720">
    <rect id="Rectangle_148" class="st0" x="5.7" y="41.29" width="12.57" height="26.71" rx="2.95" ry="2.95"/>
    <rect id="Rectangle_149" class="st0" x="82.2" y="41.29" width="12.57" height="26.71" rx="2.95" ry="2.95"/>
    <path id="Path_2072" class="st0" d="M11.98,41.29S13.49,3.59,49.96,3.59s38.52,37.7,38.52,37.7"/>
    <path id="Path_2073" class="st0" d="M18.06,65.85s.92,19.54,20.93,19.54"/>
    <ellipse id="Ellipse_27" class="st0" cx="45.15" cy="84.5" rx="6.05" ry="4.64"/>
    <path id="Path_2074" class="st0" d="M48.94,65.41h6.93l4.51,6.03c.78,1.04,2.26,1.25,3.3.47.59-.44.94-1.14.94-1.89v-4.62h5.35c2.15,0,3.89-2.19,3.89-4.88v-19.03"/>
    <path id="Path_2075" class="st0" d="M67.67,36.24v19.04c0,2.69-1.74,4.88-3.89,4.88h-19.17l-4.51,6.03c-.78,1.04-2.26,1.26-3.3.48-.6-.45-.95-1.15-.95-1.89v-4.62h-5.35c-2.15,0-3.89-2.19-3.89-4.88v-19.04c0-2.69,1.74-4.88,3.89-4.88h33.28c2.15,0,3.89,2.19,3.89,4.88Z"/>
    <path id="Path_2076" class="st0" d="M39.14,45.42c0,1.31-1.06,2.36-2.37,2.36s-2.36-1.06-2.36-2.37c0-1.3,1.06-2.36,2.36-2.36,1.31,0,2.36,1.06,2.36,2.37h0Z"/>
    <path id="Path_2077" class="st0" d="M49.71,45.42c0,1.31-1.06,2.36-2.37,2.36-1.31,0-2.36-1.06-2.36-2.37,0-1.3,1.06-2.36,2.36-2.36,1.31,0,2.37,1.06,2.37,2.36h0Z"/>
    <path id="Path_2078" class="st0" d="M60.29,45.42c0,1.31-1.06,2.36-2.37,2.36s-2.36-1.06-2.36-2.37c0-1.3,1.06-2.36,2.36-2.36,1.31,0,2.37,1.06,2.37,2.36h0Z"/>
  </g>
</svg>