<?xml version="1.0" encoding="UTF-8"?>
<svg id="Layer_1" xmlns="http://www.w3.org/2000/svg" version="1.1" viewBox="0 0 205.09 56.09">
  <!-- Generator: Adobe Illustrator 29.8.1, SVG Export Plug-In . SVG Version: 2.1.1 Build 2)  -->
  <defs>
    <style>
      .st0 {
        fill: #fb8c05;
      }

      .st1 {
        fill: #1a1818;
      }

      .st2 {
        fill: #27a49f;
      }

      .st3 {
        fill: #c7c9cb;
      }
    </style>
  </defs>
  <g id="Group_641">
    <g id="Group_641-2">
      <path id="Path_2041" class="st3" d="M32.6,53.42c0,1.47-6.84,2.67-15.28,2.67s-15.28-1.2-15.28-2.67,6.84-2.67,15.28-2.67,15.28,1.2,15.28,2.67"/>
      <path id="Path_2042" class="st1" d="M34.37,23.96c-.13-.35-.47-.57-.85-.55-.16,0-.32.07-.44.17-.05.05-.27.35-.31.35h-.14s.1-.57.1-.57c.24-1.33.47-2.66.63-4.01.08-.69.14-1.37.16-2.06.01-.34.02-.69,0-1.03,0-.15-.09-.48.03-.61-1.44,1.46-3.13,2.63-4.99,3.48,0,.1,0,.2,0,.27,0,.16.01.3.01.41-.06.88.1,1.76.46,2.57.25.61.51,1.14.76,1.65,1.04,1.6,1.34,3.57.84,5.42-1.46,5.76-4.01,11.19-7.5,16-1.69,2.3-2.79,3.6-5.76,3.6h-.14c-2.97,0-4.07-1.3-5.76-3.6-3.49-4.81-6.04-10.24-7.5-16-.5-1.84-.2-3.81.84-5.42.25-.51.52-1.03.76-1.65.36-.8.52-1.69.46-2.57,0-.1,0-.25.01-.41,0-.07,0-.17,0-.27-1.86-.84-3.55-2.02-4.99-3.48.12.12.03.45.03.61,0,.34,0,.69,0,1.03.02.69.08,1.38.16,2.06.15,1.34.39,2.68.63,4l.1.56h-.14s-.26-.29-.31-.34c-.13-.1-.28-.16-.44-.17-.37-.03-.72.19-.85.55C.07,25.45-.02,26.96,0,28.47c0,1.15.22,2.28.65,3.34.41,1.07,1.22,1.94,2.27,2.42.08.03.2.04.23.13,1.64,3.64,3.48,7.19,5.5,10.63,1.65,2.58,3.58,4.98,5.75,7.15.49.57,1.14.99,1.87,1.2.34.05.69.08,1.04.08h.01c.35,0,.7-.03,1.04-.08.73-.21,1.37-.63,1.87-1.2,2.17-2.17,4.09-4.56,5.74-7.15,2.03-3.44,3.86-6.99,5.5-10.63.03-.09.15-.1.24-.13,1.04-.48,1.85-1.35,2.27-2.42.43-1.06.65-2.2.65-3.34.03-1.51-.06-3.01-.26-4.51"/>
      <path id="Path_2043" class="st1" d="M27.01,26.84c.26.14.53.25.81.35.15-.03.25-.17.22-.32-.34-.45-.71-.87-1.1-1.27-.28-.25-.59-.45-.93-.59-.91.03-1.82.2-2.68.5-.99.2-2.03.36-3.03.49-.45.05-1.04.02-1.46.12-.33.07-.4.55-.33.83.06.21.27.28.28.35s-.14.58-.15.73c-.03.68.03,1.37.17,2.03.06.24.06.49.38.36.27-.11.31-.77.42-1.06.16-.43.52-.75.96-.88,1.21-.27,2.15,1.03,3.64.43.28-.11.61-.48.82-.5.5-.03.51.62.58.63.36.07.34-.22.52-.37.41-.36,1.06.13,1.28,0,.04-.03.09-.24.01-.28-.52-.58-1.1-1.11-1.74-1.57.31-.28.96-.09,1.33.04"/>
      <path id="Path_2044" class="st1" d="M7.21,28.38c-.07.05-.03.25.01.28.22.14.87-.35,1.28,0,.18.15.15.44.52.37.07-.02.08-.67.58-.63.21.01.54.39.82.5,1.49.6,2.43-.7,3.64-.43.44.13.8.45.96.88.11.29.15.95.42,1.06.32.13.32-.13.38-.36.15-.67.2-1.35.17-2.03-.01-.16-.17-.66-.15-.73s.23-.14.28-.35c.07-.28,0-.76-.33-.83-.43-.09-1.02-.06-1.46-.12-1-.12-2.05-.28-3.03-.49-.87-.3-1.77-.47-2.68-.5-.34.15-.66.35-.93.59-.39.4-.76.83-1.1,1.27-.03.15.07.29.22.32.28-.09.55-.21.81-.34.37-.13,1.02-.32,1.33-.04-.63.46-1.21.99-1.73,1.57"/>
      <path id="Path_2045" class="st1" d="M18.53,38.83c.36-.31.75-.6,1.15-.86.13-.25.19-.57-.09-.74-.5-.3-1.59.35-2.26.39-.67-.04-1.76-.69-2.26-.39-.28.17-.22.5-.09.74.4.26.78.55,1.15.86.72.54,1.7.54,2.41,0"/>
      <path id="Path_2046" class="st1" d="M22.33,42.4c.05-.14-.03-.29-.17-.34-.04-.01-.07-.02-.11-.01-.5.02-1-.05-1.46-.23-.69-.22-1.49-.77-2.24-.58-.27.07-.65.44-.97.46h-.11c-.31-.01-.7-.39-.97-.46-.75-.19-1.55.36-2.24.58-.47.18-.96.25-1.46.23-.15-.02-.28.09-.3.24,0,.04,0,.08.01.11h0c.19.1.4.16.61.19,1.04.1,2.09-.22,3.15-.12.41.1.83.18,1.25.24h0c.42-.06.84-.14,1.25-.24,1.06-.1,2.11.22,3.15.12.21-.03.42-.09.61-.19h0"/>
      <path id="Path_2047" class="st1" d="M18.69,44.07c-.33.03-.85.05-1.37.05s-1.04-.02-1.37-.05c-.21-.02-1.29-.35-1.33-.3-.18.19.7.94.87,1.06.41.28.92.39,1.41.3.11,0,.26,0,.42.01s.31-.01.42-.01c.49.09,1-.02,1.41-.3.17-.11,1.05-.86.87-1.06-.05-.05-1.12.28-1.33.3"/>
      <path id="Path_2048" class="st0" d="M7.04,13.98c-.25.75-1.07,1.15-1.82.9-.75-.25-1.15-1.07-.9-1.82.25-.75,1.07-1.15,1.82-.9.42.14.75.48.9.9h9.6V3.75h0s0-.1,0-.14C16.64,1.62,15.02,0,13.03,0c-.93,0-1.83.36-2.5,1.01-.07.06-.13.13-.19.2-.5.54-.79,1.24-.85,1.97-.06.73.09,1.47.44,2.12.54.99,1.52,1.67,2.64,1.82.23-.76,1.03-1.19,1.79-.95.56.17.96.66,1.01,1.24.08.79-.5,1.49-1.29,1.56-.58.06-1.13-.24-1.4-.75-.02-.06-.06-.11-.12-.15-.04-.02-.08-.03-.13-.03-2.19-.3-3.83-2.16-3.87-4.37-.19-.03-.37-.05-.56-.05-1.99,0-3.6,1.6-3.61,3.59,0,.85.29,1.67.84,2.32h4.48c.25-.75,1.07-1.15,1.82-.9s1.15,1.07.9,1.82-1.07,1.15-1.82.9c-.42-.14-.75-.48-.9-.9H3.37c-1.39.82-2.07,2.46-1.66,4.02,1.12,1,2.38,1.85,3.73,2.51h7.28c.25-.75,1.07-1.15,1.82-.9.75.25,1.15,1.07.9,1.82-.25.75-1.07,1.15-1.82.9-.42-.14-.75-.48-.9-.9h-5.15c2.91,1.05,5.97,1.61,9.06,1.66v-5.57H7.04Z"/>
      <path id="Path_2049" class="st2" d="M29.92,13.98h-11.93v5.57c3.09-.05,6.16-.61,9.06-1.66h-7.51c-.25,0-.46-.21-.46-.46s.21-.46.46-.46h9.64c1.35-.66,2.61-1.5,3.73-2.51.41-1.56-.27-3.21-1.66-4.02h-8.67c-.25,0-.46-.21-.46-.46,0-.25.21-.46.46-.46h6.8c1.28-1.51,1.1-3.78-.42-5.06-.81-.68-1.88-.98-2.92-.8-.03,2.46-2.05,4.44-4.51,4.41-.72,0-1.44-.19-2.07-.54-.23-.11-.32-.39-.21-.62s.39-.32.62-.21c.01,0,.02.01.03.02,1.72.93,3.86.29,4.79-1.43.23-.42.37-.89.41-1.37.03-.24.03-.49.01-.73-.05-.73-.35-1.43-.84-1.98-.06-.07-.12-.13-.19-.2C23.43.37,22.54,0,21.61,0c-.08,0-.15,0-.23.01-.12,0-.23.02-.35.04h0c-.11.02-.23.04-.34.07h0c-.11.03-.21.06-.32.1h-.01c-.1.04-.2.08-.3.13h-.02c-.09.06-.19.11-.27.16l-.03.02c-.08.05-.17.11-.25.16l-.04.03c-.07.06-.15.11-.22.17-.02.01-.03.03-.05.05-.06.06-.13.12-.19.18l-.06.06c-.06.06-.11.12-.16.19-.02.03-.04.06-.06.08-.05.06-.09.12-.13.19-.02.03-.04.07-.06.11-.04.06-.07.12-.11.18-.02.04-.04.09-.06.13-.03.06-.06.12-.08.18s-.04.1-.06.15-.04.11-.06.17-.03.12-.05.18-.03.1-.04.15c-.02.07-.02.15-.03.22,0,.04-.02.09-.02.13-.01.11-.02.23-.02.35v.02s0,.1,0,.14h0v9.31h11.93c.25,0,.46.21.46.46,0,.25-.21.46-.46.46"/>
      <path id="Path_2050" class="st0" d="M45.36,47.25l.8-1.44c.67.44,1.47.66,2.27.62.92,0,1.43-.32,1.43-.76,0-.56-.84-.77-1.54-.92-1.47-.34-2.72-.88-2.72-2.51,0-1.4,1.03-2.31,2.87-2.31.97-.02,1.93.21,2.79.67l-.62,1.39c-.69-.26-1.43-.4-2.17-.41-.77,0-1.13.25-1.13.63,0,.5.62.67,1.37.85,1.6.39,2.88.94,2.88,2.56,0,1.47-1.16,2.45-3.17,2.45-1.09.08-2.17-.22-3.07-.83"/>
      <path id="Path_2051" class="st0" d="M54.06,44c0-2.42,1.35-4.08,4.15-4.08s4.15,1.65,4.15,4.08-1.34,4.08-4.15,4.08-4.15-1.65-4.15-4.08M60.56,44c.18-1.15-.6-2.23-1.76-2.41-.2-.03-.4-.03-.6,0-1.16-.15-2.22.67-2.36,1.83-.03.2-.02.4,0,.6-.18,1.15.61,2.23,1.76,2.41.2.03.4.03.6,0,1.16.15,2.21-.67,2.36-1.83.03-.2.02-.4,0-.6"/>
      <path id="Path_2052" class="st0" d="M65.23,46.06v-8.24l1.71-.45v8.24c0,.63.22.81.71.81.3-.02.58-.15.78-.36v1.52c-.36.34-.85.51-1.34.49-1,.04-1.84-.74-1.87-1.74,0-.09,0-.19.01-.28"/>
      <path id="Path_2053" class="st0" d="M70.79,44.39v-4.3h1.71v4.3c0,1.42.7,2.03,1.86,2.03s1.88-.62,1.88-2.03v-4.3h1.71v4.3c.2,1.83-1.11,3.47-2.94,3.68-.21.02-.43.03-.65,0-1.83.15-3.43-1.21-3.58-3.04-.02-.21-.01-.43,0-.64"/>
      <path id="Path_2054" class="st0" d="M81.59,45.22v-3.53h-1.14v-1.19l1.13-.41.42-1.65h1.29v1.65h2.55v1.6h-2.55v3.5c0,.95.38,1.26,1.25,1.26.4,0,.8-.07,1.16-.24v1.53c-.49.23-1.03.34-1.57.34-1.39,0-2.55-.71-2.55-2.86"/>
      <path id="Path_2055" class="st0" d="M88.47,37.37h1.92v1.75h-1.92v-1.75ZM88.58,40.09h1.71v7.82h-1.71v-7.82Z"/>
      <path id="Path_2056" class="st0" d="M93.16,44c0-2.42,1.35-4.08,4.15-4.08s4.15,1.65,4.15,4.08-1.34,4.08-4.15,4.08-4.15-1.65-4.15-4.08M99.66,44c.04-1.3-.99-2.38-2.29-2.42-1.3-.04-2.38.99-2.42,2.29,0,.05,0,.09,0,.14-.04,1.3.99,2.38,2.29,2.42,1.3.04,2.38-.99,2.42-2.29,0-.05,0-.09,0-.14"/>
      <path id="Path_2057" class="st0" d="M104.36,40.09h1.49l.14,1.36c.49-1.02,1.55-1.63,2.68-1.54,1.79,0,2.98,1.16,2.98,3.5v4.5h-1.71v-4.5c.13-.88-.48-1.7-1.37-1.83-.14-.02-.27-.02-.41,0-1.37,0-2.09.8-2.09,2.38v3.95h-1.71v-7.81Z"/>
      <path id="Path_2058" class="st0" d="M114.36,47.25l.8-1.44c.67.44,1.47.66,2.27.62.92,0,1.43-.32,1.43-.76,0-.56-.84-.77-1.54-.92-1.47-.34-2.72-.88-2.72-2.51,0-1.4,1.04-2.31,2.87-2.31.97-.02,1.93.21,2.79.67l-.62,1.39c-.69-.26-1.43-.4-2.17-.41-.77,0-1.14.25-1.14.63,0,.5.62.67,1.37.85,1.6.39,2.89.94,2.89,2.56,0,1.47-1.16,2.45-3.17,2.45-1.09.08-2.17-.21-3.07-.83"/>
      <path id="Path_2059" class="st1" d="M45.36,10.7h2.56l12,8.24v-8.24h3.62v21.25h-3.61v-8.76l-10.94-7.49v16.25h-3.62V10.7Z"/>
      <path id="Path_2060" class="st1" d="M65.91,23.94c0-4.85,2.93-8.36,7.98-8.36s7.61,3.39,7.61,8.36c0,.52-.05,1.04-.14,1.55h-11.66c.26,2.41,2.38,3.65,4.85,3.65,1.75.05,3.49-.4,5-1.29l1.32,2.79c-1.98,1.19-4.27,1.77-6.58,1.67-5.4,0-8.38-3.39-8.38-8.35M77.91,22.67c-.09-2.5-1.35-3.93-4.02-3.93-2.53,0-4.11,1.49-4.11,3.93h8.13Z"/>
      <path id="Path_2061" class="st1" d="M96.93,15.93h-4.51l-2.38,3.64,2.03,3.16,4.86-6.8Z"/>
      <path id="Path_2062" class="st1" d="M92.06,24.79l-2.02,3.15,2.64,4.01h4.54l-5.15-7.16Z"/>
      <path id="Path_2063" class="st1" d="M89.03,21.12h0l-.02-.03-3.31-5.17h-4.57l5.6,7.84-5.86,8.18h4.59l5.25-8.19-1.68-2.63Z"/>
      <path id="Path_2064" class="st1" d="M100.44,26.45v-7.24h-2.32v-2.44l2.32-.83.86-3.39h2.64v3.39h5.22v3.27h-5.22v7.18c0,1.95.77,2.59,2.56,2.59.82.02,1.64-.15,2.38-.49v3.13c-1.01.47-2.11.7-3.22.69-2.84,0-5.23-1.46-5.23-5.86"/>
      <path id="Path_2065" class="st1" d="M122.74,14.2h-6.46v-3.5h16.6v3.5h-6.46v17.75h-3.68V14.2Z"/>
      <path id="Path_2066" class="st1" d="M148.64,28.16v3.13c-.75.69-1.74,1.05-2.76,1-1.74.07-3.29-1.11-3.68-2.81-1.08,1.79-3.05,2.86-5.14,2.81-4.39,0-7.38-2.81-7.38-8.21s3.36-8.5,7.96-8.5c1.73-.04,3.42.49,4.82,1.49l.4-1.15h2.7v11.32c0,1.29.46,1.67,1.46,1.67.61-.04,1.19-.3,1.61-.75M142.07,23.91v-3.85c-1.2-.86-2.66-1.29-4.13-1.21-3.16,0-4.57,1.92-4.57,5.23,0,3.13,1.44,4.83,4.28,4.83s4.42-2.07,4.42-5"/>
      <path id="Path_2067" class="st1" d="M151.01,28.16V11.27l3.5-.92v16.88c0,1.29.46,1.67,1.46,1.67.61-.04,1.19-.3,1.61-.75v3.14c-.75.69-1.74,1.05-2.76,1-1.52,0-3.82-.83-3.82-4.13"/>
      <path id="Path_2068" class="st1" d="M159.96,23.94c0-4.85,2.93-8.36,7.98-8.36s7.61,3.39,7.61,8.36c0,.52-.05,1.04-.14,1.55h-11.66c.26,2.41,2.38,3.65,4.85,3.65,1.75.04,3.48-.4,5-1.29l1.32,2.79c-1.98,1.19-4.27,1.77-6.57,1.67-5.4,0-8.39-3.39-8.39-8.35M171.96,22.67c-.09-2.5-1.35-3.93-4.02-3.93-2.53,0-4.11,1.49-4.11,3.93h8.13Z"/>
      <path id="Path_2069" class="st1" d="M177.92,15.93h3.04l.29,2.79c1-2.08,3.18-3.33,5.48-3.16,3.68,0,6.12,2.38,6.12,7.18v9.21h-3.5v-9.21c0-2.53-1.32-3.76-3.65-3.76-2.82,0-4.28,1.64-4.28,4.88v8.09h-3.5V15.93Z"/>
      <path id="Path_2070" class="st1" d="M196.37,26.44v-7.24h-2.32v-2.44l2.32-.83.86-3.39h2.64v3.39h5.22v3.27h-5.22v7.18c0,1.95.77,2.58,2.55,2.58.82.02,1.64-.15,2.38-.49v3.13c-1.01.47-2.11.7-3.22.69-2.84,0-5.23-1.46-5.23-5.86"/>
    </g>
  </g>
</svg>