<?xml version="1.0" encoding="UTF-8"?>
<svg id="Layer_1" xmlns="http://www.w3.org/2000/svg" version="1.1" viewBox="0 0 109.57 177.52">
  <!-- Generator: Adobe Illustrator 29.8.1, SVG Export Plug-In . SVG Version: 2.1.1 Build 2)  -->
  <defs>
    <style>
      .st0 {
        fill: #fb8c05;
      }

      .st1 {
        fill: #1a1818;
      }

      .st2 {
        fill: #27a49f;
      }

      .st3 {
        fill: #c7c9cb;
      }
    </style>
  </defs>
  <g id="Group_853">
    <path id="Path_2041" class="st3" d="M103.15,169.06c0,4.67-21.66,8.45-48.37,8.45s-48.37-3.78-48.37-8.45,21.66-8.45,48.37-8.45,48.37,3.78,48.37,8.45"/>
    <path id="Path_2042" class="st1" d="M108.75,75.82c-.4-1.11-1.5-1.82-2.68-1.73-.52.03-1.01.22-1.41.55-.17.14-.86,1.11-.99,1.11l-.43-.02.32-1.78c.75-4.21,1.5-8.43,1.99-12.67.25-2.17.43-4.34.51-6.52.04-1.08.06-2.17.03-3.25-.01-.49-.28-1.53.09-1.92-4.54,4.61-9.9,8.33-15.79,11,0,.33.02.63.03.86.02.51.04.97.04,1.28-.19,2.79.31,5.58,1.46,8.12.79,1.94,1.62,3.6,2.42,5.21,2.51,5.03,4.67,9.37,2.65,17.14-4.64,18.23-12.7,35.41-23.75,50.63-5.34,7.29-8.83,11.41-18.23,11.41h-.44c-9.4,0-12.88-4.12-18.22-11.41-11.05-15.22-19.11-32.4-23.75-50.63-2.03-7.77.14-12.11,2.65-17.14.8-1.61,1.64-3.28,2.42-5.21,1.15-2.55,1.65-5.34,1.46-8.12,0-.32.01-.78.04-1.28,0-.23.02-.53.03-.86-5.89-2.67-11.25-6.39-15.79-11,.37.39.1,1.43.09,1.92-.03,1.08,0,2.17.03,3.25.07,2.18.26,4.35.5,6.52.49,4.25,1.24,8.47,1.98,12.68l.32,1.78-.43.02c-.12,0-.81-.97-.99-1.11-.4-.33-.89-.52-1.4-.55-1.18-.09-2.27.61-2.68,1.73C.23,77.89,0,85.49,0,90.09c0,3.63.69,7.22,2.06,10.58,1.7,3.8,4.38,6.67,7.17,7.66.26.1.64.12.74.42.91,2.73,12.95,27,17.41,33.64,5.32,7.9,11.24,16.05,18.17,22.62,1.6,1.51,3.64,3.46,5.92,3.8,1.09.16,2.19.24,3.29.25h.03c1.1,0,2.2-.09,3.29-.25,2.28-.34,4.32-2.29,5.91-3.8,6.94-6.57,12.86-14.71,18.17-22.62,4.47-6.64,16.51-30.91,17.42-33.64.11-.3.48-.32.75-.42,2.78-1,5.46-3.86,7.17-7.67,1.36-3.36,2.06-6.96,2.05-10.58,0-4.6-.23-12.19-.82-14.27"/>
    <path id="Path_2043" class="st1" d="M85.45,84.95c.83.43,1.69.8,2.57,1.09.47-.09.78-.55.69-1.02-1.07-1.42-2.23-2.76-3.47-4.03-.87-.78-1.87-1.42-2.95-1.87-2.08-.43-6.26,1.11-8.5,1.58-3.12.65-6.44,1.16-9.6,1.54-1.41.17-3.28.07-4.63.37-1.06.23-1.27,1.74-1.03,2.63.18.66.84.9.9,1.1s-.43,1.82-.48,2.31c-.1,2.16.09,4.32.55,6.44.19.75.18,1.56,1.2,1.15.86-.34.97-2.44,1.33-3.34.52-1.35,1.65-2.38,3.04-2.78,3.83-.86,6.8,3.28,11.51,1.36.88-.36,1.93-1.53,2.59-1.57,1.6-.11,1.6,1.95,1.85,2,1.15.21,1.08-.7,1.63-1.18,1.31-1.14,3.36.42,4.06-.02.13-.09.27-.75.04-.9-1.85-1.61-3.33-3.8-5.5-4.99.97-.89,3.04-.28,4.2.12"/>
    <path id="Path_2044" class="st1" d="M22.81,89.82c-.24.14-.1.81.04.9.7.44,2.75-1.11,4.05.02.56.48.48,1.39,1.64,1.18.24-.05.25-2.11,1.84-2,.66.05,1.72,1.22,2.59,1.57,4.72,1.91,7.69-2.23,11.51-1.36,1.39.4,2.52,1.43,3.04,2.78.36.9.47,3,1.33,3.34,1.02.4,1.02-.4,1.2-1.15.46-2.11.65-4.28.55-6.43-.04-.49-.54-2.09-.48-2.31.06-.2.72-.44.9-1.1.24-.89.03-2.4-1.03-2.64-1.35-.3-3.21-.19-4.63-.37-3.16-.39-6.49-.9-9.6-1.55-2.23-.46-6.41-2.01-8.5-1.58-1.08.46-2.08,1.09-2.95,1.87-1.24,1.27-2.4,2.62-3.47,4.04-.09.47.22.92.69,1.01.88-.29,1.74-.66,2.57-1.09,1.16-.41,3.23-1.02,4.2-.12-2.18,1.19-3.65,3.37-5.5,4.99"/>
    <path id="Path_2045" class="st1" d="M58.6,122.87c1.15-.98,2.36-1.89,3.63-2.72.41-.78.59-1.81-.3-2.35-1.58-.96-5.02,1.1-7.15,1.23-2.13-.13-5.57-2.19-7.15-1.23-.89.54-.71,1.57-.29,2.35,1.27.83,2.48,1.74,3.63,2.72,2.26,1.69,5.37,1.69,7.64,0"/>
    <path id="Path_2046" class="st1" d="M70.65,134.15c.15-.45-.09-.93-.54-1.08-.12-.04-.24-.05-.36-.04-1.58.08-3.15-.17-4.63-.73-2.19-.7-4.73-2.44-7.09-1.84-.85.21-2.07,1.4-3.07,1.44-.07,0-.12,0-.18,0s-.12.01-.18,0c-1-.04-2.22-1.23-3.07-1.44-2.37-.6-4.91,1.14-7.09,1.84-1.48.56-3.05.81-4.63.73-.47-.05-.89.29-.94.76-.01.12,0,.24.04.36h0c.61.31,1.26.51,1.94.6,3.28.3,6.62-.7,9.97-.38,1.28.12,2.63.78,3.96.76h.02c1.33.02,2.67-.65,3.95-.76,3.34-.32,6.69.68,9.97.38.67-.09,1.33-.29,1.94-.6h0"/>
    <path id="Path_2047" class="st1" d="M59.12,139.46c-1.04.1-2.69.15-4.34.15s-3.3-.05-4.34-.15c-.68-.07-4.07-1.1-4.22-.95-.58.61,2.2,2.99,2.76,3.35,1.84,1.2,2.5.94,4.47.97.34,0,.81.02,1.33.04.53-.02,1-.04,1.33-.04,1.98-.02,2.64.24,4.48-.97.55-.36,3.34-2.74,2.76-3.35-.15-.16-3.55.88-4.22.95"/>
    <path id="Path_2048" class="st0" d="M22.25,44.24c-.81,2.37-3.38,3.65-5.76,2.84-2.37-.81-3.65-3.38-2.84-5.76s3.38-3.65,5.76-2.84c1.34.45,2.39,1.5,2.84,2.84h30.38V11.88h-.02c0-.15.02-.3.02-.45C52.63,5.12,47.53,0,41.22,0c-2.96,0-5.8,1.14-7.93,3.2-.21.2-.41.41-.6.62-1.57,1.72-2.51,3.93-2.67,6.25-.19,2.32.29,4.65,1.38,6.7,1.72,3.14,4.83,5.27,8.37,5.75.74-2.39,3.28-3.73,5.68-2.99,1.75.54,3,2.08,3.17,3.9.24,2.5-1.59,4.71-4.09,4.95-1.82.17-3.57-.77-4.43-2.38-.08-.19-.2-.36-.37-.48-.12-.06-.26-.1-.4-.11-6.93-.96-12.12-6.83-12.23-13.82-.59-.1-1.18-.15-1.78-.16-6.3,0-11.41,5.09-11.42,11.38,0,2.67.93,5.26,2.64,7.32h14.19c.81-2.37,3.38-3.65,5.76-2.84,2.37.81,3.65,3.38,2.84,5.76-.81,2.37-3.38,3.65-5.76,2.84-1.34-.45-2.39-1.5-2.84-2.84H10.64c-4.41,2.58-6.56,7.79-5.25,12.73,3.56,3.17,7.53,5.84,11.81,7.93h23.03c.81-2.37,3.38-3.65,5.76-2.84,2.37.81,3.65,3.38,2.84,5.76-.81,2.37-3.38,3.65-5.76,2.84-1.34-.45-2.39-1.5-2.84-2.84h-16.3c9.21,3.33,18.9,5.1,28.69,5.25v-17.62h-30.38Z"/>
    <path id="Path_2049" class="st2" d="M94.69,44.24h-37.75v17.62c9.79-.15,19.48-1.92,28.69-5.24h-23.76c-.81,0-1.46-.65-1.46-1.46,0-.81.65-1.46,1.46-1.46h30.51c4.28-2.09,8.26-4.76,11.81-7.93,1.3-4.94-.84-10.14-5.25-12.73h-27.44c-.81,0-1.46-.65-1.46-1.46,0-.81.65-1.46,1.46-1.46h21.53c4.06-4.79,3.46-11.95-1.32-16.01-2.55-2.16-5.93-3.09-9.24-2.54-.09,7.79-6.47,14.04-14.27,13.95-2.29-.03-4.54-.61-6.56-1.7-.71-.39-.97-1.27-.58-1.98.39-.71,1.27-.97,1.98-.58,5.43,2.94,12.22.92,15.16-4.51.73-1.35,1.18-2.84,1.31-4.37.09-.77.1-1.55.04-2.32-.16-2.32-1.1-4.53-2.67-6.25-.19-.21-.39-.42-.6-.62C74.15,1.15,71.31,0,68.36,0c-.24,0-.48.02-.72.04-.37.02-.74.06-1.1.12h0c-.36.06-.71.13-1.06.22h-.01c-.34.09-.68.19-1.01.31h-.04c-.32.13-.64.26-.94.41l-.06.03c-.3.14-.58.3-.87.46l-.09.06c-.27.16-.53.33-.78.51l-.12.09c-.24.18-.47.36-.69.55-.05.05-.1.1-.16.14-.2.19-.4.38-.6.58-.06.07-.12.13-.18.2-.18.19-.35.38-.51.59-.07.08-.14.18-.2.26-.14.2-.29.39-.42.59-.07.11-.14.23-.2.34-.12.19-.23.38-.33.57-.07.14-.14.28-.2.41-.09.19-.18.37-.26.56-.06.16-.12.32-.18.49s-.13.35-.19.53-.1.39-.15.57c-.04.17-.09.32-.12.49-.05.23-.07.47-.11.7-.02.14-.05.27-.06.41-.04.36-.06.73-.06,1.1v.05c0,.15.02.31.02.45h-.02v29.45h37.75c.81,0,1.46.65,1.46,1.46,0,.8-.65,1.46-1.46,1.46"/>
  </g>
</svg>